<svg xmlns="http://www.w3.org/2000/svg" viewBox="0 0 1000 1000"><defs><linearGradient id="grd1" x1="460.8" x2="902.9" y1="910.6" y2="764.7" gradientUnits="userSpaceOnUse"><stop offset="0" stop-color="#ffb539"/><stop offset="0" stop-color="#ffb539"/><stop offset="1" stop-color="#ffb539"/></linearGradient><linearGradient id="grd2" x1="237.2" x2="237.2" y1="961.6" y2="43.1" gradientUnits="userSpaceOnUse"><stop offset="0" stop-color="#000b18"/><stop offset=".5" stop-color="#00154f"/><stop offset="1" stop-color="#02386e"/></linearGradient><linearGradient id="grd3" x1="707.2" x2="707.2" y1="162.2" y2="737.2" gradientUnits="userSpaceOnUse"><stop offset="0" stop-color="#47c9ff"/><stop offset="1" stop-color="#e6e7e8"/></linearGradient><linearGradient id="grd4" x1="236.3" x2="867.2" y1="159.2" y2="159.2" gradientUnits="userSpaceOnUse"><stop offset="0" stop-color="#00498d"/><stop offset=".5" stop-color="#1f8ac0"/><stop offset="1" stop-color="#47c9ff"/></linearGradient><linearGradient id="grd5" x1="343.9" x2="616.2" y1="639.1" y2="336.3" gradientUnits="userSpaceOnUse"><stop offset="0" stop-color="#ffe173"/><stop offset=".5" stop-color="#ffb539"/><stop offset="1" stop-color="#f49f1c"/></linearGradient><linearGradient id="grd6" x1="367.4" x2="637.6" y1="609.3" y2="881.2" gradientUnits="userSpaceOnUse"><stop offset="0" stop-color="#ffe173"/><stop offset="1" stop-color="#ffb539"/></linearGradient><clipPath id="cp1" clipPathUnits="userSpaceOnUse"><path d="M93-11h828v1018H93z"/></clipPath></defs><g id="Page 2" clip-path="url(#cp1)"><path id="Path 12" fill="url(#grd1)" d="M504 893c90 55 92 46 177 69l151 1a60 60 0 10-6-120H584c-71 0-133-40-165-98 0 0-7 93 85 148z"/><path id="Path 13" fill="url(#grd2)" d="M270 43c-84 0-153 69-153 153v706a60 60 0 00119 0V275c0-10 2-217 121-232h-87z"/><path id="Path 14" fill="url(#grd3)" d="M604 162c24 1 46 10 64 23 61 38 103 115 103 205 0 65-23 124-58 165a171 171 0 01-135 63 60 60 0 00-3 119 229 229 0 0019 0c42-2 82-13 119-32 47-25 88-63 119-111a377 377 0 0035-335c-43-92-219-97-256-97h-7z"/><path id="Path 15" fill="url(#grd4)" d="M357 43C238 58 236 265 236 275c1-62 51-113 114-113h3l231-1 20 1s215-6 263 97c-9-26-21-51-36-73A296 296 0 00584 43H357z"/><path id="Path 16" fill="url(#grd5)" d="M278 655c0 35 5 69 16 100 5-19-3-45 46-136a338 338 0 01244-151 187 187 0 0134 3l7 1a60 60 0 0022-116 300 300 0 00-63-7 306 306 0 00-306 306z"/><path id="Path 17" fill="url(#grd6)" d="M340 619c-49 91-41 117-46 136a306 306 0 00290 207h97c-85-23-87-14-177-69-92-55-85-148-85-148a186 186 0 0184-259c-3 2-116 44-163 133z"/></g></svg>