<svg fill="none" xmlns="http://www.w3.org/2000/svg" viewBox="0 0 520 514"><g clip-path="url(#clip0)"><path opacity=".24" d="M17.076 383.084c4.527 12.187 10.185 24.341 19.352 33.552 7.559 7.593 16.725 12.515 26.718 16.091 16.476 5.896 35.08 8.125 52.259 12.448a179.557 179.557 0 0175.423 40.138c8.612 7.718 16.703 16.443 27.16 21.32 8.125 3.836 17.223 5.069 26.163 5.929a331.217 331.217 0 00168.999-28.844c14.712-6.79 29.253-14.949 39.766-27.317 6.971-8.205 11.849-17.857 16.398-27.589.6-1.188 1.131-2.342 1.675-3.497 20.199-43.272 40.558-87.394 47.076-134.661 6.518-47.268-2.875-99.129-35.669-133.825-22.43-23.763-53.742-37.614-76.137-61.344-19.566-20.8-31.347-48.116-51.92-67.897-52.055-50.243-117.69-20.369-174.951 1.132C118.833 51.443 66.314 95.666 34.673 152.156-4.232 221.75-10.864 308.477 17.076 383.084z" fill="#00C4FF"/><path opacity=".45" d="M63.145 432.728c16.477 5.895 35.081 8.125 52.26 12.447a179.569 179.569 0 0175.424 40.139c8.611 7.717 16.703 16.442 27.159 21.319 8.125 3.836 17.223 5.07 26.163 5.93a331.22 331.22 0 00169-28.845c14.711-6.79 29.252-14.948 39.765-27.317 6.971-8.204 11.849-17.857 16.398-27.589-30.668.378-61.339.702-92.014.974-61.108.52-122.217.844-183.326.973-30.26.068-60.523.09-90.791.068-8.318-.034-28.665-1.109-40.038 1.901z" fill="#00C4FF"/><path opacity=".45" d="M382.709 436.609c8.94.736 20.291 3.961 20.947 12.912-35.556 8.08-72.165 10.184-108.637 11.938-16.307.792-32.648 1.528-48.944.487a225.402 225.402 0 01-74.745-17.959c70.501-6.405 140.55-13.183 211.379-7.378z" fill="#00C4FF"/><path d="M281.224 149.972l-14.247-2.817s-1.234-.17-.883 1.403l20.29 5.42 3.757.962 1.664-2.976-10.581-1.992z" fill="#00C4FF"/><path d="M281.224 149.972l-14.247-2.817s-1.234-.17-.883 1.403l20.29 5.42 3.757.962 1.664-2.976-10.581-1.992z" fill="url(#paint0_linear)"/><path d="M261.409 80.163c2.75 4.074 3.191 9.37 2.263 14.213a45.43 45.43 0 00-.894 5.194c-.396 6.349 3.882 12.029 4.878 18.31.961 6.088-1.302 12.334-4.855 17.37-3.554 5.036-8.329 9.053-13.048 13.047-4.527-4.73-6.077-11.553-6.201-18.105-.125-6.552 1.029-12.991 1.211-19.509a28.969 28.969 0 00-.951-9.212c-1.618-5.375-5.658-10.546-4.289-15.978.837-3.157 3.395-5.522 5.794-7.706 2.75-2.478 4.685-3.723 8.544-2.863a12.449 12.449 0 017.548 5.24z" fill="#606161"/><path d="M261.409 80.163c2.75 4.074 3.191 9.37 2.263 14.213a45.43 45.43 0 00-.894 5.194c-.396 6.349 3.882 12.029 4.878 18.31.961 6.088-1.302 12.334-4.855 17.37-3.554 5.036-8.329 9.053-13.048 13.047-4.527-4.73-6.077-11.553-6.201-18.105-.125-6.552 1.029-12.991 1.211-19.509a28.969 28.969 0 00-.951-9.212c-1.618-5.375-5.658-10.546-4.289-15.978.837-3.157 3.395-5.522 5.794-7.706 2.75-2.478 4.685-3.723 8.544-2.863a12.449 12.449 0 017.548 5.24z" fill="url(#paint1_linear)"/><path d="M260.243 195.022l56.582-20.675-3.214 9.506s-41.87 31.232-51.84 29.422c-9.97-1.811-1.528-18.253-1.528-18.253z" fill="#BA816C"/><path d="M319.066 172.967l13.218-30.939a6.339 6.339 0 00-2.157-7.663 6.334 6.334 0 00-2.63-1.084l-23.165-3.893a6.342 6.342 0 00-7.005 4.051l-22.35 60.361a6.362 6.362 0 005.013 8.487l20.608 3.055a6.348 6.348 0 006.789-3.881l11.679-28.494z" fill="#fff"/><path d="M321.092 173.34l12.527-29.331a6.014 6.014 0 00-.248-5.252 6.017 6.017 0 00-4.279-3.054l-21.965-3.689a6.029 6.029 0 00-6.643 3.847L279.3 193.098a6.015 6.015 0 00.458 5.146 6.008 6.008 0 004.284 2.888l19.543 2.931a6.029 6.029 0 006.462-3.677l11.045-27.046z" fill="#00C4FF"/><path d="M321.092 173.34l12.527-29.331a6.014 6.014 0 00-.248-5.252 6.017 6.017 0 00-4.279-3.054l-21.965-3.689a6.029 6.029 0 00-6.643 3.847L279.3 193.098a6.015 6.015 0 00.458 5.146 6.008 6.008 0 004.284 2.888l19.543 2.931a6.029 6.029 0 006.462-3.677l11.045-27.046z" fill="url(#paint2_linear)"/><path d="M313.102 182.235a3.537 3.537 0 001.657 3.005 3.546 3.546 0 004.778-.955 3.53 3.53 0 00.374-3.411 3.532 3.532 0 00-1.071-1.412M309.605 190.801a3.546 3.546 0 005.084 3.196 3.544 3.544 0 00.654-5.969M306.109 199.378a3.538 3.538 0 003.352 3.533 3.542 3.542 0 002.385-6.316" stroke="#00C4FF" stroke-width="1.14" stroke-miterlimit="10" stroke-linecap="round"/><path d="M253.205 141.282l26.853 48.772-16.771 7.242s-13.002-51.805-10.082-56.014z" fill="#00C4FF"/><path d="M213.201 425.135l-.962 13.421a13.097 13.097 0 007.718 1.799c4.096-.521 12.256-8.906 14.225-8.499l-.068-3.994M260.979 415.55l-.962 13.421a13.097 13.097 0 007.718 1.799c4.085-.521 12.255-8.906 14.224-8.498l-.079-3.995" fill="#BA816C"/><path d="M257.584 245.062s-7.186 95.575-7.989 97.148c-.804 1.573-15.391 86.964-15.391 86.964s-10.184 6.53-22.214-1.301l9.495-87.96-4.402-83.886s34.334-14.1 40.501-10.965z" fill="#606161"/><path d="M270.768 237.208s16.363 91.095 15.775 92.792c-.589 1.698-4.018 89.839-4.018 89.839s-9.189 6.19-22.123 0l-2.037-88.447-15.277-82.607s21.15-13.874 27.68-11.577z" fill="#606161"/><path d="M270.768 237.208s16.363 91.095 15.775 92.792c-.589 1.698-4.018 89.839-4.018 89.839s-9.189 6.19-22.123 0l-2.037-88.447-15.277-82.607s21.15-13.874 27.68-11.577z" fill="url(#paint3_linear)"/><path d="M257.584 245.062s-7.186 95.575-7.989 97.148c-.804 1.573-15.391 86.964-15.391 86.964s-10.184 6.53-22.214-1.301l9.495-87.96-4.402-83.886s34.334-14.1 40.501-10.965z" fill="#606161"/><path d="M257.584 245.062s-7.186 95.575-7.989 97.148c-.804 1.573-15.391 86.964-15.391 86.964s-10.184 6.53-22.214-1.301l9.495-87.96-4.402-83.886s34.334-14.1 40.501-10.965z" fill="url(#paint4_linear)"/><path d="M209.987 133.79s17.235-8.623 23.504-7.842c11.407 1.426 16.058 13.274 19.238 22.791 10.706 32.296 7.446 65.192 16.036 97.873 0 0-2.343 11.746-17.235 14.1-14.893 2.353-8.612-72.865-14.101-87.745-5.488-14.881-33.711-36.042-27.442-39.177z" fill="#fff"/><path d="M236.037 126.525s13.128 3.395 16.251 8.827c0 2.919 3.338 8.023 4.096 11.135 3.712 15.311 9.325 29.954 14.644 44.574a144.965 144.965 0 017.174 31.006c.691 5.364.623 10.943 1.505 16.25.883 5.307.227 6.405-3.824 9.822-.691.578-11.509 9.11-11.724 7.752-3.214-19.509-6.42-39.018-9.619-58.527-1.449-8.838-2.365-17.223-4.821-25.925a204.692 204.692 0 00-8.974-24.895c-.634-1.494-8.906-21.082-4.708-20.019zM212.488 136.755c4.617-3.395 8.816-2.161 12.889 2.014 3.135 3.237 5.002 7.469 6.722 11.622a226.256 226.256 0 0112.2 36.845c1.267 5.658 2.806 10.988 3.542 16.827.792 6.247 1.335 12.527 2.387 18.74 1.392 8.26 3.633 16.974 3.633 25.348 0 10.184-.781 19.588-16.454 21.161-15.673 1.573-25.417.317-25.417.317s-12.98-97.477-10.626-114.712c.555-4.028.849-8.17 3.701-11.316a67.212 67.212 0 016.846-6.461c.189-.121.381-.249.577-.385z" fill="#00C4FF"/><path d="M236.037 126.525s13.128 3.395 16.251 8.827c0 2.919 3.338 8.023 4.096 11.135 3.712 15.311 9.325 29.954 14.644 44.574a144.965 144.965 0 017.174 31.006c.691 5.364.623 10.943 1.505 16.25.883 5.307.227 6.405-3.824 9.822-.691.578-11.509 9.11-11.724 7.752-3.214-19.509-6.42-39.018-9.619-58.527-1.449-8.838-2.365-17.223-4.821-25.925a204.692 204.692 0 00-8.974-24.895c-.634-1.494-8.906-21.082-4.708-20.019z" fill="url(#paint5_linear)"/><path d="M212.488 136.755c4.617-3.395 8.816-2.161 12.889 2.014 3.135 3.237 5.002 7.469 6.722 11.622a226.256 226.256 0 0112.2 36.845c1.267 5.658 2.806 10.988 3.542 16.827.792 6.247 1.335 12.527 2.387 18.74 1.392 8.26 3.633 16.974 3.633 25.348 0 10.184-.781 19.588-16.454 21.161-15.673 1.573-25.417.317-25.417.317s-12.98-97.477-10.626-114.712c.555-4.028.849-8.17 3.701-11.316a67.212 67.212 0 016.846-6.461c.189-.121.381-.249.577-.385z" fill="url(#paint6_linear)"/><path d="M254.404 82.223c4.425 7.061 4.866 16.906 5.353 24.986.43 6.97 1.89 18.728-7.322 21.059-1.946.498-3.995.068-5.986.192a1.762 1.762 0 00-.804.181 1.901 1.901 0 00-.69 1.381 25.37 25.37 0 01-1.302 5.341c-1.38 3.248-5.375 5.477-8.724 3.395-2.875-1.754-3.678-7.016-4.527-9.947-1.788-6.326 3.723-14.484 4.64-20.923 1.573-10.966 3.134-23.504 8.623-27.42 4.9-3.45 8.329-2.093 10.739 1.755z" fill="#BA816C"/><path d="M255.638 79.145c-2.128 3.87-6.451 7.706-8.737 10.467-4.277 5.16-9.268 10.298-10.501 17.155-.804 4.459.249 9.053.837 13.512.334 2.578.515 5.174.543 7.774a11.953 11.953 0 01-.441 4.017c-1.573 4.708-6.292 6.439-10.909 6.948-3.848.43-7.763.125-11.588.758a24.141 24.141 0 00-9.858 4.111 24.141 24.141 0 00-7.117 7.964 18.845 18.845 0 01-1.742-21.829c3.7-5.873 10.705-9.687 12.448-16.386 1.742-6.699-2.184-13.138-3.214-19.848-1.279-8.17 2.014-16.691 7.785-22.632 5.772-5.941 13.795-9.348 21.988-10.445a22.01 22.01 0 018.94.305 19.32 19.32 0 017.152 4.052c2.897 2.478 5.387 5.816 5.579 9.618a8.551 8.551 0 01-1.165 4.459z" fill="#606161"/><path d="M255.638 79.145c-2.128 3.87-6.451 7.706-8.737 10.467-4.277 5.16-9.268 10.298-10.501 17.155-.804 4.459.249 9.053.837 13.512.334 2.578.515 5.174.543 7.774a11.953 11.953 0 01-.441 4.017c-1.573 4.708-6.292 6.439-10.909 6.948-3.848.43-7.763.125-11.588.758a24.141 24.141 0 00-9.858 4.111 24.141 24.141 0 00-7.117 7.964 18.845 18.845 0 01-1.742-21.829c3.7-5.873 10.705-9.687 12.448-16.386 1.742-6.699-2.184-13.138-3.214-19.848-1.279-8.17 2.014-16.691 7.785-22.632 5.772-5.941 13.795-9.348 21.988-10.445a22.01 22.01 0 018.94.305 19.32 19.32 0 017.152 4.052c2.897 2.478 5.387 5.816 5.579 9.618a8.551 8.551 0 01-1.165 4.459z" fill="url(#paint7_linear)"/><path d="M201.274 221.298c12.923-2.048 65.408-53.186 65.408-53.186s-5.85-9.053-6.903-8.838c-.633.159-25.903 15.843-45.797 28.29l-23.889 14.904a5.871 5.871 0 00-2.535 4.062c-1.313 6.315 3.61 16.375 13.716 14.768z" fill="#BA816C"/><path d="M185.691 198.552c0 2.875 0 5.885 1.607 8.306.078-.095.165-.182.26-.26a5.88 5.88 0 012.535-4.062l23.889-14.96c3.87-11.033 7.921-22.474 7.638-33.801a13.29 13.29 0 00-4.99-10.434c-12.38-9.245-25.496 15.084-28.065 24.262-2.84 9.981-2.874 20.493-2.874 30.949zM243.088 224.172l-25.553 14.7 1.788 7.536 25.768-15.775-2.003-6.461zM273.812 232.851c-.362-.792-10.604-8.679-10.604-8.679v-6.45l10.604 7.57v7.559z" fill="#00C4FF"/><path d="M272.397 149.791a31.68 31.68 0 0110.015-1.063c1.845 0 4.04.181 5.002 1.754a3.77 3.77 0 01-.328 3.949 12.807 12.807 0 01-3.01 2.885 16.955 16.955 0 00-3.305 3.26c-.701.973-1.233 2.07-2.003 2.987-2.037 2.422-5.386 3.214-8.532 3.61a10.099 10.099 0 00-4.414 1.199 3.186 3.186 0 01-1.131.623 2 2 0 01-1.053-.147c-4.153-1.483-5.816-6.734-2.953-10.004 3.247-3.723 6.903-7.457 11.712-9.053zM313.917 184.294c3.915-.803 8.08-1.743 10.864-4.617a18.466 18.466 0 003.395-5.477 130.687 130.687 0 002.15-5.013 3.567 3.567 0 00-.894-4.809c-1.63-1.72-3.644-3.508-6.009-3.395a8.272 8.272 0 00-2.761.826c-3.214 1.381-6.7 2.999-8.193 6.156a13.902 13.902 0 00-1.019 4.855 161.904 161.904 0 00-.441 7.423c-.091 2.331.169 4.628 2.908 4.051z" fill="#BA816C"/><path d="M299.907 430.532a5.123 5.123 0 012.501 3.067 3.631 3.631 0 01-2.014 3.542 10.27 10.27 0 01-4.21.996c-9.643.824-19.335.918-28.992.283-2.264-.147-4.708-.453-6.157-2.173-1.448-1.72-1.29-4.594-.928-6.993.182-1.132.51-2.512 1.607-2.909a3.614 3.614 0 012.264.204c3.261.893 6.724.702 9.868-.543 2.738-1.132 5.149-3.565 8.227-3.576 5.816-.09 13.274 4.855 17.834 8.102zM251.122 439.133a5.169 5.169 0 012.49 3.066 3.656 3.656 0 01-2.014 3.554c-1.32.618-2.754.953-4.21.984-9.643.824-19.335.919-28.993.283-2.263-.147-4.707-.453-6.156-2.173-1.448-1.72-1.29-4.594-.928-6.993.181-1.132.509-2.512 1.607-2.908a3.61 3.61 0 012.263.203c3.262.893 6.725.703 9.868-.543 2.739-1.131 5.149-3.564 8.227-3.576 5.794-.034 13.275 4.912 17.846 8.103z" fill="#00C4FF"/><path d="M299.907 430.532a5.123 5.123 0 012.501 3.067 3.631 3.631 0 01-2.014 3.542 10.27 10.27 0 01-4.21.996c-9.643.824-19.335.918-28.992.283-2.264-.147-4.708-.453-6.157-2.173-1.448-1.72-1.29-4.594-.928-6.993.182-1.132.51-2.512 1.607-2.909a3.614 3.614 0 012.264.204c3.261.893 6.724.702 9.868-.543 2.738-1.132 5.149-3.565 8.227-3.576 5.816-.09 13.274 4.855 17.834 8.102z" fill="url(#paint8_linear)"/><path d="M251.122 439.133a5.169 5.169 0 012.49 3.066 3.656 3.656 0 01-2.014 3.554c-1.32.618-2.754.953-4.21.984-9.643.824-19.335.919-28.993.283-2.263-.147-4.707-.453-6.156-2.173-1.448-1.72-1.29-4.594-.928-6.993.181-1.132.509-2.512 1.607-2.908a3.61 3.61 0 012.263.203c3.262.893 6.725.703 9.868-.543 2.739-1.131 5.149-3.564 8.227-3.576 5.794-.034 13.275 4.912 17.846 8.103z" fill="url(#paint9_linear)"/><path d="M327.089 147.958a3.543 3.543 0 105.738-2.784M323.593 156.524a3.54 3.54 0 007.062.393 3.535 3.535 0 00-1.325-3.165" stroke="#00C4FF" stroke-width="1.14" stroke-miterlimit="10" stroke-linecap="round"/></g><defs><linearGradient id="paint0_linear" x1="279.594" y1="145.31" x2="277.32" y2="160.881" gradientUnits="userSpaceOnUse"><stop stop-color="#010101" stop-opacity="0"/><stop offset=".47" stop-color="#010101" stop-opacity=".47"/><stop offset=".95" stop-color="#010101"/></linearGradient><linearGradient id="paint1_linear" x1="-7996.5" y1="8033.48" x2="-8721.49" y2="8033.48" gradientUnits="userSpaceOnUse"><stop stop-color="#010101" stop-opacity="0"/><stop offset=".47" stop-color="#010101" stop-opacity=".47"/><stop offset=".95" stop-color="#010101"/></linearGradient><linearGradient id="paint2_linear" x1="-14200.1" y1="11325.2" x2="-10854.7" y2="12287.1" gradientUnits="userSpaceOnUse"><stop stop-color="#010101" stop-opacity="0"/><stop offset=".47" stop-color="#010101" stop-opacity=".47"/><stop offset=".95" stop-color="#010101"/></linearGradient><linearGradient id="paint3_linear" x1="-11545.2" y1="56103" x2="-13214.9" y2="56103" gradientUnits="userSpaceOnUse"><stop stop-color="#010101" stop-opacity="0"/><stop offset=".47" stop-color="#010101" stop-opacity=".47"/><stop offset=".95" stop-color="#010101"/></linearGradient><linearGradient id="paint4_linear" x1="-13319.3" y1="57948.5" x2="-15156.3" y2="57948.5" gradientUnits="userSpaceOnUse"><stop stop-color="#010101" stop-opacity="0"/><stop offset=".47" stop-color="#010101" stop-opacity=".47"/><stop offset=".95" stop-color="#010101"/></linearGradient><linearGradient id="paint5_linear" x1="-13998.9" y1="23534.2" x2="-10416.1" y2="23303.3" gradientUnits="userSpaceOnUse"><stop stop-color="#010101" stop-opacity="0"/><stop offset=".47" stop-color="#010101" stop-opacity=".47"/><stop offset=".95" stop-color="#010101"/></linearGradient><linearGradient id="paint6_linear" x1="-15820.4" y1="24970.8" x2="-19777.8" y2="25330.1" gradientUnits="userSpaceOnUse"><stop stop-color="#010101" stop-opacity="0"/><stop offset=".47" stop-color="#010101" stop-opacity=".47"/><stop offset=".95" stop-color="#010101"/></linearGradient><linearGradient id="paint7_linear" x1="-18651.3" y1="9511.75" x2="-22202.3" y2="9511.75" gradientUnits="userSpaceOnUse"><stop stop-color="#010101" stop-opacity="0"/><stop offset=".47" stop-color="#010101" stop-opacity=".47"/><stop offset=".95" stop-color="#010101"/></linearGradient><linearGradient id="paint8_linear" x1="-11523.6" y1="6548.91" x2="-11511.8" y2="7189.17" gradientUnits="userSpaceOnUse"><stop stop-color="#010101" stop-opacity="0"/><stop offset=".47" stop-color="#010101" stop-opacity=".47"/><stop offset=".95" stop-color="#010101"/></linearGradient><linearGradient id="paint9_linear" x1="-13369.2" y1="6688.53" x2="-13369.2" y2="7411" gradientUnits="userSpaceOnUse"><stop stop-color="#010101" stop-opacity="0"/><stop offset=".47" stop-color="#010101" stop-opacity=".47"/><stop offset=".95" stop-color="#010101"/></linearGradient><clipPath id="clip0"><path fill="#fff" transform="matrix(-1 0 0 1 520 0)" d="M0 0h520v514H0z"/></clipPath></defs></svg>