<svg fill="none" xmlns="http://www.w3.org/2000/svg" viewBox="0 0 259 324"><path fill-rule="evenodd" clip-rule="evenodd" d="M245.861 194.94a104.74 104.74 0 006.356-3.635c1.465-.877.168-3.085-1.334-2.287-.768.408-1.533.82-2.3 1.226a13.552 13.552 0 001.666-1.705l-.034-.035c1.936-1.735-.551-5.009-2.753-3.584-1.942 1.408-3.901 2.845-6.13 3.772-4.617 1.958-9.709 2.282-14.664 2.339-1.813-.136-3.545.178-5.305.528.69-2.768 2.416-4.859 3.332-7.54.676-2.707-3.23-4.551-4.615-1.949a64.955 64.955 0 00-.98 1.935c-2.992 2.723-7.988 2.483-11.005 5.406-1.719 1.526-2.56 3.597-2.893 5.675-.225 1.411.125 2.826-.728 4.076-4.123 5.835-10.639 15.058-13.948 21.479-2.343-15.259-8.599-34.132-15.062-48.085-2.137-4.462-4.582-8.822-7.792-12.605.364-1.261-.92-3.5-1.737-2.811-2.513-3.071-6.956-3.867-10.529-5.394-4.822-2.063-8.823-6.351-10.79-11.224-2.527-9.281-8.749-10.46-17.377-10.05-8.257-.01-14.366 3.523-16.168 11.932-3.66 6.382-12.302 5.326-18.52 7.016-4.556 1.041-8.978 2.651-13.18 4.695-4.676-4.436-21.42 14.183-22.942 18.974.896.174 1.787.383 2.67.638.785.227.455 1.415-.337 1.225-.987-.237-1.98-.4-2.977-.513-.03.095-.057.19-.077.284-.112-.008-.224-.018-.336-.025.249.129.487.279.72.473.563.467-.17 1.369-.768.997-.563-.422-1.301-.355-1.977-.497-.04 1.39-5-.165-5.77-.626-3.423-.428-6.945.032-10.141-1.62-4.253-.896-8.537-1.887-12.742-3.028-1.113.434-2.16 1.988-1.275 3.128.497.519-.142 1.366-.768.997-2.1-1.237-3.725-3.167-5.102-5.247-.648-.654-1.799-.513-2.67-.785a1.394 1.394 0 00-.184.682c-3.694.608-1.058 4.644.799 5.902-.986.642-1.023 1.898-.937 2.948-.208.373-.278.837-.096 1.255.694 1.602 2.196 2.95 3.339 4.248 1.261 1.433 2.386 2.873 3.92 4.035 5.85 4.461 12.909 6.954 20.15 7.93 2.572.395 6.27 1 7.863 3.175-.39 2.581-1.108 5.057-1.759 7.574-.91 3.342-.848 6.84-.86 10.246-.127-.102-.371-.081-.407.114-.212 1.412-.37 2.856-1.227 4.042-.753 2.207-1.253 4.56-1.534 6.878-1.127 10.989-1.396 22.303 1.144 33.121a39.203 39.203 0 004.746 11.339c.648 1.048 1.689 1.355 2.624 1.149 3.128 1.626 7.07 2.147 10.443 1.734 11.497-3.256 7.49 4.585 23.611 2.184 27.826-3.546 55.946 3.422 83.712-.669.684 5.284 9.637 3.768 12.746 1.534 9.324-6.934 13.954-28.888 18.633-40.025 3.217-8.779 8.603-24.326 15.657-30.217 2.115-1.655 4.671-2.526 7.229-3.229 9.547-2.461 19.13-4.788 28.695-7.181 1.623-.4 1.331-3.167-.404-2.99-2.301.236-4.611.449-6.921.671z" fill="#D08B5B"/><path fill-rule="evenodd" clip-rule="evenodd" d="M33.337 193.294c-.647-.08-1.28-.31-1.91-.492a30.265 30.265 0 01-2.83-.983c-1.915-.767-3.772-1.674-5.513-2.784-2.812-1.794-5.296-4.093-7.17-6.862l-.129-.193c-1.07-1.63-3.043-5.25-.83-6.488-1.427-1.192-2.774-3.333-2.698-4.986.107-2.337 2.972-2.305 4.453-1.314.97.649 1.697 1.557 2.425 2.452a40.633 40.633 0 003.287 3.56l.246.231a3.174 3.174 0 01-.102-.279c-.494-1.541.096-3.546 1.636-4.252.942-.432 1.921-.169 2.834.198l.14.057c1.23.51 2.474.96 3.755 1.321 5.218 1.474 10.664 1.719 16.012 2.454 2.06.286 4.157.645 6.207 1.173.781-3.32 2.697-6.503 4.776-9.122 9.955-12.527 26.373-16.667 41.392-19.347 1.369-.243 2.503 1.571 3.3 1.142 1.51-.812 2.839-1.962 4.006-3.211 2.486-2.665 4.25-5.799 6.323-8.769 1.024-1.467 3.382-.154 2.431 1.421l-.465.769c-1.918 3.152-4.041 6.4-6.792 8.845-1.462 1.298-3.084 2.323-4.939 2.963-1.405.484-3.376.892-4.914.422l-.185-.268.185.269c4.014 5.818 9.051 10.743 14.358 15.39 5.356 4.689 11.135 8.887 16.949 12.992l.484.342c9.471-6.911 17.472-15.925 23.085-26.224-1.176-.142-2.34-.896-3.346-1.458-1.21-.681-2.349-1.493-3.236-2.575-1.934-2.356-1.682-5.393-2.031-8.253-.021-.177.214-.222.321-.133 1.048.871 1.416 2.297 1.853 3.53.482 1.354 1.027 2.47 2.132 3.423 1.029.888 2.284 1.541 3.503 2.122.628.299 3.749 1.065 4.105 1.7 5.391-1.266 10.643.921 14.638 4.611 3.86 3.566 6.693 8.201 9.195 12.776 2.668 4.883 4.855 9.972 6.739 15.203 1.91 5.309 3.374 10.734 4.179 16.322.68 4.712 1.096 9.497 1.366 14.261l.033.595a749.887 749.887 0 0112.249-18.601c-.949-2.534.101-5.121 1.878-7.078 1.969-2.166 4.692-3.172 7.297-4.343l.343-.155c1.255-.573 2.507-1.204 3.591-2.062 1.044-.829 1.811-1.97 2.909-2.733 1.597-1.112 4.496-.875 4.57 1.554.038 1.333-.535 2.796-1.059 3.994-.593 1.355-1.394 2.583-2.345 3.711a.683.683 0 01-.14.127l-.037.023c1.314.218 2.639.394 3.989.455 2.723.125 5.476-.076 8.142-.651a29.419 29.419 0 007.83-2.874c2.097-1.138 4.041-2.609 6.424-2.955a6.97 6.97 0 01.67-.068c.38-.021.76.427.61.803-.082.207-.169.412-.264.62-.824 1.815-2.087 3.576-3.664 4.913l-.122.102a19.386 19.386 0 001.642-.651c3.167-1.427 6.04-3.582 9.435-4.449.161-.042.323-.08.486-.116 1.05-.226 1.604.915.987 1.697-.1.127-.199.251-.302.376a38.576 38.576 0 01-5.028 5.195 40.864 40.864 0 01-2.791 2.173l-.14.099c.332-.234.659-.473.985-.718a67.313 67.313 0 006.133-2.203c.796-.327 1.415.48 1.5 1.144.283 2.223-2.185 3.832-3.79 4.901-1.61 1.074-3.383 1.89-5.198 2.544-3.489 1.262-7.154 1.835-10.813 2.348l-1.777.248c-7.035.984-14.382 2.16-19.429 7.636-2.829 3.069-4.743 6.882-6.495 10.633-1.749 3.747-3.285 7.594-4.743 11.462-1.51 4.002-2.826 8.079-4.225 12.123-1.284 3.712-2.819 7.377-4.338 11.005l-.24.572c-3.226 7.711-7.08 14.972-12.45 21.41-.885 1.063-2.316-.446-1.498-1.498 5.618-7.245 9.526-15.794 12.752-24.323 1.468-3.88 2.698-7.853 4.109-11.755l.84-2.318a508.7 508.7 0 013.432-9.24c1.494-3.879 3.135-7.711 5.013-11.418l.2-.39c1.839-3.576 4.023-7.101 7.03-9.807 5.412-4.874 12.614-6.043 19.577-6.969l2.19-.289c2.944-.391 5.896-.823 8.759-1.611 1.652-.452 3.266-1.031 4.783-1.83a19.38 19.38 0 001.764-1.046 48.124 48.124 0 01-4.956 1.175c-.822.15-1.635.262-2.447.34-2.089.207-4.161.199-6.302.087-.181-.011-.24-.296-.046-.332a74.093 74.093 0 004.468-.956l.446-.109c.008-.247.106-.509.308-.759.74-.9 2.145-1.361 3.119-1.997a34.253 34.253 0 002.951-2.154 37.707 37.707 0 002.487-2.225l.239-.235-.239.235c-2.151.993-4.19 2.268-6.435 3.054a22.041 22.041 0 01-5.546 1.2l-.117.01-.118.007c-1.971.142-3.955.085-5.896.512-.218.048-.285-.243-.091-.326 1.696-.706 3.461-.978 5.244-1.308a.537.537 0 01.304-.345l.456-.218c1.359-.652 2.625-1.311 3.754-2.371a11.907 11.907 0 002.451-3.244c-2.495.548-4.686 2.439-6.955 3.502a30.938 30.938 0 01-7.774 2.467l-.307.052c-5.022.838-11.061.732-15.56-1.881-.143-.084-.04-.276.108-.253 1.276.209 2.54.456 3.803.676-.247-.226-.357-.632-.072-.957a13.625 13.625 0 002.606-4.415l.109-.318c.265-.755.711-1.927.255-2.607-.435-.649-1.459-.561-2.072-.286-1.274.575-2.121 2.01-3.194 2.877-1.171.947-2.502 1.648-3.865 2.276l-.287.131c-2.357 1.06-4.875 1.953-6.729 3.825-.997 1.006-1.855 2.264-2.142 3.674a4.24 4.24 0 00.042 1.953c.138.5.425.809.26 1.318-.215.658-.978 1.444-1.371 2.029a720.72 720.72 0 00-1.365 2.034c-.906 1.356-1.808 2.718-2.71 4.077a784.335 784.335 0 00-7.083 10.883l-.857 1.343-.453.708-.772 1.215a.6.6 0 01-.011.334 1.53 1.53 0 01-.684.818l-.055.032c-4.509 7.129-8.945 14.304-13.426 21.45a320.89 320.89 0 00-.657 6.547c-.442 4.942-.744 9.896-.841 14.856-.047 2.401.146 4.817.249 7.216a98.36 98.36 0 00.211 3.431l.067.811c.089 1.113.139 2.218-.261 3.28-.355.932-1.436 1.141-2.077.431-8.351-.336-16.709-.592-25.067-.75-14.959-.288-29.926-.243-44.888.046-7.514.146-15.031.351-22.544.605-3.701.122-7.405.296-11.108.346-1.996.027-5.136-.699-5.297-2.945l-.004-.069c-.25.068-.507.123-.771.163a.89.89 0 01-.335-.011l-.052-.014c-2.974.907-6.737-.387-9.563-1.141l-.233-.062c-2.698-.704-4.866-1.71-6.634-3.946-3.095-3.916-4.151-9.175-4.7-14.021-.516-4.561-.546-9.206.082-13.758-.37-3.71-.009-7.537.412-11.225.207-1.824.45-3.646.741-5.46.163-1.012.376-2.014.594-3.014.087-.399.159-.829.27-1.245l.049-.177a1.744 1.744 0 01-1.065-.226c-.85-.467-1.096-1.412-1.111-2.316-.047-2.727.279-5.531.566-8.241a95.97 95.97 0 011.206-8.093l.135-.688c.394-1.999.844-4.062 1.638-5.94-2.981-.507-5.954-1.046-8.846-1.963a26.844 26.844 0 01-4.128-1.693zm155.59 28.374a2.659 2.659 0 00-.135.036c-1.192.334-2.396.617-3.596.921-2.075.522-4.103 1.106-6.032 2.012-.404 5.103-1.003 10.188-1.572 15.276l-.114 1.018a147.142 147.142 0 012.707-4.825 639.402 639.402 0 018.742-14.438zm-143.259.505c.007.607-.12 1.237-.188 1.82-.11.947-.198 1.898-.31 2.845a126.223 126.223 0 00-.564 5.717c-.091 1.219-.15 2.443-.203 3.667 1.198-4.479 2.785-8.86 4.293-13.248a5.185 5.185 0 01-.776-.159l-.448-.12c-.263-.068-1.12-.279-1.804-.522zm147.032-4.17l.009.201c.031.712-.395 1.114-.913 1.217.3-.473.602-.947.904-1.418zM55.63 184.246c1.26.112 2.497.381 3.676.846l.113.044c.872.337 2.147.76 2.432 1.691.08.264-.135.482-.382.503-.947.076-2.062-.939-2.939-1.281a13.892 13.892 0 00-3.034-.814 13.813 13.813 0 00-6.94.766c-.129.05-.209-.155-.093-.216 2.206-1.201 4.659-1.761 7.166-1.539zm-26.728 6.045a19.665 19.665 0 01-.435-.399c-1.132-1.072-2.136-2.323-2.878-3.698l-.196-.372c-.605-1.172-1.347-2.841.074-3.685.85-.505 1.872-.378 2.819-.072l.183.061c.423.149.83.326 1.194.495 1.578.725 2.97 1.78 4.428 2.71 1.58 1.008 3.14 1.652 4.962 2.03l.172.034c1.711.339 3.566.556 4.76 1.964.3.355.025 1.021-.492.845-3.3-1.113-6.793-1.359-9.822-3.187-1.255-.757-2.442-1.625-3.725-2.342-.68-.38-1.383-.713-2.131-.942l-.409-.12c-.24-.07-.525-.139-.718-.07-.366.126-.249.322-.136.664l.012.035c.89 2.752 3.424 5.055 5.774 6.579a21.3 21.3 0 001.652.971c3.804 2.028 8.06 2.972 12.24 4.093 0 0 2.418.675 3.218.928.892-.074 1.908.241 2.58.617a4.67 4.67 0 011.576 1.433s.382.319.452.814c.2.459.336.953.404 1.469.038.302-.038.534-.182.699.432 6.635-1.36 13.233-3.38 19.538l-.2.622-.128.394c-2.178 6.685-4.677 13.322-5.793 20.292-.746 4.656-.722 9.475-.175 14.152l.038.322c.54 4.423 1.577 9.383 4.388 12.942 1.434 1.817 3.132 2.624 5.304 3.209l.12.031c1.964.518 3.992 1.252 6.018 1.474 1.88.204 3.456-.495 5.149-1.15l.002-.002c3.564-3.156 5.182-7.751 6.378-12.388 3.1-12 2.715-24.457.957-36.633-.917-6.362-2.163-12.668-3.406-18.973-.62-3.151-1.29-6.296-1.846-9.458l-.33-1.861a102.314 102.314 0 01-.509-3.108c-.203-1.397-.264-2.77-.334-4.176-1.707-2.83-4.185-5.161-7.056-6.833-2.056-1.198-4.232-2.029-6.477-2.631-6.42-1.731-13.42-1.609-19.88-2.94-2.171-.447-4.231-1.11-6.29-1.905l-.281-.109c-.945-.368-1.908-.573-2.377.541-.334.792-.135 1.617.366 2.282 1.227 1.632 3.695 2.389 5.552 2.976 1.117.355 2.258.636 3.412.846 1.153.209 2.31.262 3.418.67.427.156.511.834 0 .955-1.403.327-2.814.046-4.209-.226a29.435 29.435 0 01-4.506-1.275 43.88 43.88 0 01-.835-.316l-.215-.085c.222.16.444.319.668.478.059.042.023.154-.055.126-3.448-1.287-6.584-3.608-9.014-6.355l-.121-.137c-.856-.981-2.806-3.949-4.45-3.122-1.543.775 1.088 3.763 2.088 4.984l.116.143c1.136.03 2.237.738 3.158 1.308 1.6.992 3.27 1.846 4.974 2.644 3.384 1.592 6.978 2.714 10.326 4.386.045.023.01.08-.031.074-2.132-.34-4.24-.884-6.3-1.558l-.092-.028-.092-.031a57.902 57.902 0 01-3.805-1.41 39.414 39.414 0 01-4.06-1.923c-1.192-.651-2.515-1.824-3.896-1.997a1.834 1.834 0 00-.393-.011c-1.587.133-.275 2.763.169 3.549a18.972 18.972 0 002.602 3.572c2.035 2.21 4.5 3.962 7.169 5.326.91.465 1.842.875 2.788 1.251z" fill="#000"/><path fill-rule="evenodd" clip-rule="evenodd" d="M129.619 53.95c11.97 0 27.422 7.527 28.74 15.237 1.552 9.086 9.867 43.95 7.99 55.13-1.878 11.18-11.996 19.229-28.187 19.229-16.191 0-28.275-8.852-31.05-11.891-2.775-3.039-7.917-13.89-7.917-13.89s-8.669-1.156-8.71-8.24c-.041-7.085 5.636-9.662 5.636-9.662s-2.024-27.957 3.074-35.236c5.098-7.279 18.453-10.678 30.424-10.678z" fill="#D08B5B"/><path fill-rule="evenodd" clip-rule="evenodd" d="M157.626 67.943c-.009-.163.227-.182.272-.038 2.582 8.553 4.174 15.22 5.85 23.988l.495 2.58c1.322 6.88 2.659 13.77 3.787 20.684l.066.412c.565 3.579.891 7.193.183 10.779-.662 3.352-2.471 6.425-4.82 8.872-4.539 4.73-10.847 7.685-17.192 9.006-3.209.668-6.519.926-9.789.693a35.1 35.1 0 01-4.853-.685l-.176-.037c-1.609-.349-3.036-.764-3.891-2.281-.215-.383-.128-1.038.323-1.235.852-.367 1.478-.522 2.407-.416.888.101 1.755.37 2.632.537a30.87 30.87 0 005.085.518c3.35.074 6.708-.347 9.91-1.349 5.503-1.722 11.094-5.017 14.309-9.946 3.782-5.798 2.276-12.834 1.274-19.238l-.03-.193a3197.908 3197.908 0 01-2.992-19.639l-.415-2.807c-1.092-7.416-2.123-12.71-2.435-20.205zM101.761 49.79c2.746-1.814 6.159-2.26 9.384-2.235l.404.005c4.131.063 24.921.559 31.882.712l1.656.035c2.192.041 6.612.084 8.89.126l.131.002c1.117.022 2.235.03 3.352.066l.164.006c.837.036 1.533.161 2.189.753.333.3.463.757.433 1.192l-.005.057 1.659.146c1.127.1 1.722 1.112 1.275 2.137l-.023.05c-.795 1.7-1.402 6.645-1.828 8.473a24.667 24.667 0 00-.508 2.921c-.084.774-.092 1.55-.522 2.23-.918 1.452-3.498 1.439-3.544-.617-.002-.066 0-.13.006-.19-6.493-.286-15.358-.259-21.843.13a121.77 121.77 0 00-22.512 3.496c-1.221.309-2.719.493-3.812 1.154-1.222.744-1.199 2.078-1.066 3.348.142 1.346.38.652.717 1.88l.021.077c.347 1.332.778 2.648 1.347 3.9.324.714.847 1.4.649 2.223-.112.463-.477.957-.812 1.28-1.526 1.47-4.106.533-5.144 2.545-1.085 2.104-1.112 4.954-1.204 7.282l-.006.137a44.91 44.91 0 00.057 4.812c.095 1.458.483 2.902-.015 4.303-.362 1.019-1.547 1.114-2.167.286a4.38 4.38 0 01-.197-.291l-.06-.098-.004.002a4.5 4.5 0 01.166.285c.057.108-.084.226-.17.133-1.46-1.591-3.59-1.274-5.241-.16-1.672 1.132-2.332 3.284-2.419 5.214-.097 2.14.093 4.65.983 6.628.375.837.91 1.606 1.798 1.925.403.144.787.125 1.206.158.436.034.961.254 1.385.225.55-.04 1.045.59.889 1.118l-.012.035a1.922 1.922 0 01-.025.074c.02.019.042.043.057.077 1.602 3.282 3.799 6.203 6.227 8.912 1.217 1.355 2.566 2.6 3.977 3.752.695.568 1.429 1.137 2.203 1.595.257.15.493.252.782.334.135.038.289.057.419.102l.136.046.027.009a.994.994 0 01.843.706c.335 1.052-.274 1.982-1.316 2.272-1.128.316-2.191-.239-3.086-.877l-.059-.043c-1.824-1.316-3.504-2.794-4.959-4.518-2.877-3.405-4.68-7.347-5.515-11.707-.206.446-.485.835-.967 1.105-.75.423-1.647.423-2.47.281-1.654-.281-3.064-1.293-4.007-2.663-.978-1.42-1.343-3.145-1.564-4.825-.22-1.682-.327-3.371-.108-5.057.315-2.423 1.328-4.817 3.3-6.144-1.476-3.224-1.735-6.838-1.63-10.367.129-4.346.877-8.74 1.453-13.045l1.636-12.239.067-.493c.395-2.88.875-5.774 1.95-8.487 1.06-2.674 2.671-5.092 5.1-6.696zm-6.885 57.902c2.703-1.315 5.623-.104 7.077 2.447 1.265 2.218-2.496 3.684-3.123 1.398l-.018-.071c-.413-1.73-2.096-3.227-3.852-3.459-.145-.021-.253-.233-.084-.315z" fill="#000"/><path fill-rule="evenodd" clip-rule="evenodd" d="M143.152 128.274a8.601 8.601 0 01-3.614-2.781c-.322-.43-.405-.883-.338-1.298.076-.466.352-.889.728-1.172.377-.284.849-.425 1.305-.353.397.062.791.279 1.103.729l.066.09a5.698 5.698 0 002.086 1.752 4.7 4.7 0 002.582.454c1.737-.196 2.935-1.136 4.208-2.413.158-.161.315-.327.474-.496a.74.74 0 01.394-.303.842.842 0 01.543.008.859.859 0 01.427.324.8.8 0 01.135.524c-.117 1.322-.808 2.503-1.79 3.43-1.091 1.03-2.537 1.742-3.898 1.992-1.499.275-3.027.078-4.411-.487zm5.118-20.408c1.596.97 4.027 3.232 2.31 5.637-2.02 2.121-4.928-.31-6.362-1.41-1.329-.852-2.822 1.34-1.589 2.335 10.357 7.671 14.56-6.308 6.448-7.702-.893-.154-1.224.84-.807 1.14zm-18.559-8.923c.176-2.189 3.508-2.686 3.84-.52.296 1.94-.053 3.722-.927 5.469-.834 1.669-2.932.891-3.091-.629-.213-2.037.068-2.959.178-4.32zm25.365-.97c.465-.608 1.136-1.023 1.939-.788 2.511.733 1.771 4.3.889 6.035-.479.943-2.028 1.182-2.728.352-1.141-1.353-1.687-4.056-.237-5.39.04-.068.083-.138.137-.208zm-22.487-8.608l.397-.07c1.227-.211 2.752-.415 3.62.572.461.523.619 1.495 0 1.996-1.088.882-2.292.54-3.596.615-1.075.061-2.108.24-3.143.535-2.272.65-4.123 1.836-6.063 3.138-.254.17-.514-.155-.393-.394 1.12-2.194 3.29-3.997 5.464-5.095 1.161-.587 2.43-1.074 3.714-1.297zm20.198-.983l.304.063c3.303.69 7.596 2.07 9.16 5.317.06.459-.003.557-.055.621l-.017.022c-.042.055-.076.13-.274.193a7.626 7.626 0 01-.168-.042c-.717-.188-1.284-.447-1.833-.716l-.596-.294c-.691-.338-1.388-.665-2.127-.906a25.024 25.024 0 00-4.845-1.07 1.987 1.987 0 01-.971-.37 1.46 1.46 0 01-.544-.828c-.116-.466-.083-.82.168-1.241.188-.316.457-.536.767-.662a1.799 1.799 0 011.031-.087z" fill="#000"/></svg>