<svg fill="none" xmlns="http://www.w3.org/2000/svg" viewBox="0 0 240 324"><path fill="#FDEA6B" d="M128.451 194.02h48.38v59.601h-48.38z"/><path fill-rule="evenodd" clip-rule="evenodd" d="M114.339 135.723c5.216-3.972 18.308-5.759 23.875-1.934 5.497 3.842 6.096 10.054 8.658 15.768 2.417-1.14 6.409.493 7.11 2.737.869 1.058.908 4.031 1.507 5.453 26.08 4.153 30.039 24.493 33.178 47.585 4.153 23.432 13.58 46.813 9.487 70.925a13.88 13.88 0 011.343 2.414c.931 1.585-.269 3.83-2.148 3.743-2.431-.214-4.839-.506-7.283-.597-6.773-.235-13.552-.207-20.328-.121l-.924.012c-34.148.425-68.294 1.263-102.443 1.486-1.239.001-1.845-1.11-1.68-2.207.333-2.207.642-4.416.965-6.624-8.077 2.134-16.664 2.671-24.718.224-.564-.574 1.313-.263 1.61-.35-7.412-5.067-5.199-15.742-4.542-23.43 4.083-26.345 5.522-55.494 21.297-77.975 6.825-9.174 16.83-16.438 28.327-18.072l.32-.044c3.361-.449 7.108-.593 10.047-2.422 3.306-2.641 4.714-7.519 8.192-7.564 1.148-.015 2.711 1.438 4.392 2.425.125-2.171 1.295-4.003 1.553-5.686l.021-.144c.269-1.962-.1-3.727 2.184-5.602zm56.047 70.305c-7.329-5.093-26.261-2.534-26.694-2.249-.955.628-1.366.684-1.882 1.499-.509.068-1.019.138-1.527.21-1.021.334-.265 1.589.914 1.141-.709 3.059 1.378 5.235 2.209 8.259.269.982.009 2.748 0 3.752.08 1.279 1.494 2.79 1.258 4.074-.837 4.562-5.383 9.013-3.467 13.438 1.27 2.5 5.089 3.774 7.628 4.624 5.26 2.019 14.426-.076 17.482-4.624 1.631-2.425 3.519-8.543 4.491-10.441l.216-3.01c.531-7.483 1.004-15.539-.628-16.673z" fill="#D08B5B"/><path fill-rule="evenodd" clip-rule="evenodd" d="M105.918 144.743l2.097 1.288 12.182 6.024c2.361.661 3.542 1.454 3.542 2.378v9.409c0 1.259 2.216 4.113 6.648 8.561l4.095-4.083-.092-.535c-.389-2.304-.584-3.845-.584-4.623 0-.837 4.006-4.015 12.018-9.533l3.505-3.302-.374-1.137c2.162.103 4.505 1.434 5.027 3.104.869 1.058.908 4.031 1.507 5.454 26.08 4.152 30.039 24.492 33.178 47.584 4.153 23.432 13.58 46.813 9.487 70.926.533.771.954 1.522 1.343 2.413.931 1.585-.269 3.83-2.148 3.743-2.431-.214-4.839-.506-7.283-.597-6.773-.235-13.552-.207-20.328-.121l-.924.012c-34.148.425-68.294 1.264-102.443 1.486-1.239.002-1.845-1.11-1.68-2.206.333-2.208.642-4.417.965-6.625-8.077 2.134-16.664 2.671-24.718.224-.564-.574 1.313-.263 1.61-.35-7.412-5.067-5.199-15.742-4.542-23.43 4.083-26.345 5.522-55.494 21.297-77.975 6.825-9.174 16.83-16.438 28.327-18.072l.32-.044.32-.042c3.278-.417 6.88-.609 9.727-2.38 3.218-2.571 4.639-7.263 7.921-7.551zm29.188 55.227c-1.195 0-3.642 1.856-7.341 5.569l-.326.15c-4.471 2.078-7.433 3.88-8.886 5.407l-.052.056c-1.468 1.575-4.375 5.764-8.72 12.566l-6.293 3.723h-2.381l-1.695 12.302 4.076 8.783 9.233-3.111 15.044-3.967 8.633-8.762 4.87-1.635c-.591 1.707-.805 3.406-.071 5.102 1.27 2.499 5.089 3.773 7.628 4.623 5.26 2.019 14.426-.076 17.482-4.623 1.63-2.426 3.519-8.544 4.491-10.442l.279-3.91c.502-7.217.875-14.684-.691-15.773-7.329-5.093-26.261-2.534-26.695-2.249-.954.628-1.365.684-1.881 1.499l-.267.036 1.502-2.039-.532-.284c-3.796-2.014-6.265-3.021-7.407-3.021zm6.091 6.659c-.679 2.929 1.205 5.048 2.096 7.877l-2.276-4.359v-3.461a1.49 1.49 0 00.18-.057z" fill="#9DDADB"/><path fill-rule="evenodd" clip-rule="evenodd" d="M104.912 144.288c.506-.448 1.255.115.933.721-.722 1.361-1.463 2.65-2.433 3.853-.588.73-1.218 1.42-1.856 2.102 1.638 1.417 3.043 3.177 4.369 4.827 1.696 2.109 3.3 4.308 5.204 6.238 1.878 1.904 3.955 3.235 6.465 4.122l.507.176c2.523.886 5.218 2.082 6.64 4.471.28.471-.284 1.053-.759.759-2.47-1.53-5.373-1.838-8.062-2.849-2.597-.976-4.862-2.479-6.862-4.398-1.998-1.915-3.675-4.094-5.424-6.227-1.73-2.109-3.592-3.911-5.638-5.695-3.158 2.125-6.762 3.05-10.427 3.958l-.4.099c-3.67.909-7.32 1.964-10.761 3.547-3.035 1.395-6.02 3.061-8.493 5.331-2.624 2.41-4.667 5.487-6.536 8.496-4.182 6.733-7.122 14.109-9.71 21.575a222.842 222.842 0 00-6.762 23.701 167.34 167.34 0 00-2.292 12.318 184.45 184.45 0 00-.793 5.987c-.247 2.136-.304 4.333-.96 6.386-.28.88-.943 1.246-1.607 1.214l-.134 1.687c-.179 2.248-.346 4.497-.402 6.759-.093 3.762-.051 7.513.22 11.266l.038.512c.212 2.74.687 5.818 2.747 7.824 2.132 2.078 5.412 2.731 8.286 2.768 6.694.087 13.138-3.077 19.062-5.853a206.038 206.038 0 0017.828-9.474 270.353 270.353 0 008.748-5.428 234.062 234.062 0 004.21-2.79c.798-.542 1.554-1.135 2.367-1.616-.398-.371-.576-.953-.243-1.462-2.348-2.04-3.325-5.678-3.44-8.623-.092-2.376.258-4.746.534-7.1.139-1.188.31-2.373.49-3.554.07-.467.124-.967.206-1.46a193.689 193.689 0 01-19.55 9.348 155.175 155.175 0 01-10.425 3.85l-.714.235c-3.337 1.093-6.753 2.125-10.203 2.749-.184.034-.334-.239-.137-.325 3.362-1.484 6.84-2.736 10.252-4.103l.56-.228a1.236 1.236 0 01-.2-.029c-2.001-.483-3.987-1.228-5.95-1.855-1.821-.582-3.868-.947-5.57-1.825-.131-.068-.058-.25.07-.259 1.913-.133 3.99.425 5.867.754l.705.123c1.18.208 2.388.432 3.563.724.042-.393.262-.789.575-1.021 3.443-2.551 3.093-7.702 3.462-11.501l.273-2.821c.48-4.936.988-9.872 1.76-14.771.041-.261.446-.186.448.061.04 6.073-.419 12.118-.649 18.181l-.035.995c-.127 3.742-.227 7.627-2.582 10.506.329-.193.774-.193 1.041.125.328.39.517.828.511 1.258a338.167 338.167 0 006.357-2.743c6.78-3.005 13.418-6.368 19.88-10.006.696-.392 1.357-.084 1.701.432l.05-.007a.21.21 0 01.025-.002l.05-.002h.005c.91-.5 2.149-.144 2.93.585.023.022.042.046.063.069a10.46 10.46 0 002.748-1.802c1.714-1.554 3.166-3.475 4.431-5.402 2.331-3.549 4.31-7.495 7.459-10.416 2.557-2.373 5.728-3.851 9.055-4.778a.332.332 0 01.091-.27c.171-.175.293-.236.513-.129.018.008.028.02.036.033l.324-.555c.177-.301.359-.605.422-.684.378-.476.767-.948 1.162-1.41.669-.783 1.431-1.555 2.314-2.098 1.933-1.188 3.965-.516 5.953.134 1.201.392 2.397.797 3.596 1.196l.124.04c.894.287 1.94.539 2.339 1.486.158.375.183.764.109 1.141 8.49-2.159 17.919-1.167 26.204 1.368.318.098.635.359.702.703.949 4.87 1.372 9.864.942 14.816-.37 4.276-1.317 8.465-3.101 12.379l-.102.221c-1.677 3.627-4.335 8.099-8.394 9.236-2.451.686-5.161.282-7.661.156-2.429-.123-4.913-.14-7.319-.522-2.143-.341-4.021-1.302-5.345-3.045-1.143-1.504-1.744-3.322-2.237-5.13-.226.072-.45.149-.671.235-.931.364-1.72.951-2.433 1.642-1.506 1.459-2.674 3.231-4.25 4.623-1.427 1.261-3.052 2.241-4.796 2.995-3.613 1.562-7.489 2.186-11.31 3.013l-.267.058c-2.877.632-5.813 1.407-8.353 2.906-.05.441-.25.856-.572 1.128.447.421.637 1.087.244 1.712-1.1 1.746-2.994 2.739-4.694 3.855l-.11.073a205.46 205.46 0 01-15.627 9.429c-5.757 3.147-11.638 6.115-17.625 8.807.36 1.769.228 3.592.498 5.373l.041.254c.116.661-.04 1.213-.495 1.645l-.048.044v-.006l-.042.04-.014.012.004-.004a1.516 1.516 0 01-.161.131l-.07.045c-.439.266-1.003.263-1.452.028l-.05-.028-.087-.049c-.593-.342-1.002-1.187-.756-1.858.605-1.65.833-3.412 1.391-5.073l-.443.198-.583.255c-6.313 2.73-13.324 5.03-20.202 3.168-3.039-.822-5.879-2.563-7.4-5.399-1.496-2.791-1.707-6.032-1.786-9.137a73.592 73.592 0 01.612-11.522c.339-2.55.75-5.148 1.382-7.672a1.904 1.904 0 01-.628-1.209c-.299-2.411.224-4.917.544-7.314.312-2.342.657-4.679 1.048-7.008a241.124 241.124 0 012.77-14.048c1.898-8.275 4.404-16.402 7.42-24.336l.265-.691c2.788-7.251 6.015-14.347 10.51-20.717 2.15-3.048 4.423-5.811 7.46-8.007 2.847-2.058 6.057-3.54 9.37-4.672 3.317-1.133 6.726-1.893 10.196-2.365 3.523-.48 7.242-.774 10.529-2.22-.416-.745-.06-1.752.64-2.215 2.355-1.556 4.533-3.581 6.643-5.452zm75.381 67.679c.099-.15.333-.055.29.122-1.145 4.694-2.22 9.398-2.922 14.181-1.268 8.634-1.035 17.38-.931 26.078l.005.449c.053 4.685.127 9.37.282 14.053.078 2.367.233 4.757.149 7.125-.046 1.285-.388 2.5-.509 3.769-.107 1.11-.012 2.236.041 3.348.036.739-1.055.707-1.129 0l-.095-.915c-.123-1.158-.275-2.309-.654-3.417-.456-1.333-.675-2.642-.834-4.042-.242-2.145-.35-4.311-.443-6.47l-.064-1.494c-.391-9.026-.377-18.094.255-27.11l.046-.644c.627-8.522 1.713-17.731 6.513-25.033zm-24.412-53.714c-.3-.123-.195-.575.137-.496l.602.143c4.414 1.058 8.749 2.204 12.869 4.172 4.123 1.97 7.613 4.91 10.387 8.525 5.391 7.028 7.632 15.569 9.401 24.101 1.965 9.482 3.755 18.998 5.738 28.476l.368 1.766c1.834 8.828 3.567 17.661 4.843 26.593l.092.648c1.287 9.186 2.061 18.689.656 27.899-.277 1.822-3.308 1.368-3.19-.432.343-5.204.588-10.381.351-15.596a165.304 165.304 0 00-1.455-15.582c-.614-4.352-1.529-8.65-2.338-12.967l-.127-.682c-.678-3.672-1.376-7.34-2.073-11.008l-1.042-5.493c-1.562-8.224-3.154-16.456-4.953-24.628l-.107-.481c-1.76-7.863-4.355-16.099-9.636-22.343-5.359-6.336-13.03-9.527-20.523-12.615zm-19.472 83.399c.129-.288.58-.256.718 0 .543 1.002.604 2.281.706 3.413l.011.116c.131 1.381.246 2.767.317 4.152.134 2.629.198 5.254.19 7.887a159.178 159.178 0 01-.208 8.086l-.039.721c-.133 2.341-.356 4.952-1.468 6.999-.404.744-1.503.525-1.737-.227-.767-2.464-.373-5.385-.176-7.908l.152-1.969c.152-1.969.296-3.938.41-5.91.157-2.697.286-5.396.411-8.094.04-.877.084-1.753.13-2.63l.071-1.314c.061-1.1.056-2.306.512-3.322zm-86.229 3.491l.34-.328c1.042-1.02 2.359-2.592 3.9-2.494.614.039 1.005.549.878 1.154-.272 1.292-1.59 1.963-2.539 2.752-1.04.864-2.019 1.788-2.997 2.721a58.173 58.173 0 00-2.516 2.555l-.304.33c-.292.318-2.37 2.199-2.145 2.687l.012.022c.062.093-.042.221-.145.189-.898-.284-.842-1.053-.503-1.833.652-1.498 1.794-2.884 2.791-4.163a35.06 35.06 0 013.228-3.592zm89.481-37.568c-.694-1.641-3.251-1.607-4.702-1.508-3.655.247-7.61 1.172-10.862 2.881-3.371 1.771-5.642 4.61-7.674 7.749l-.095.148c-1.981 3.08-3.889 6.726-6.99 8.844-1.58 1.078-3.424 2.064-5.341 2.49a.979.979 0 01-.624.482l-.13.029c-.546.121-1.394.254-2.126.174.004.359.001.715.01 1.054.025.974.036 1.951.036 2.925.001 2.041-.109 4.085-.024 6.126.076 1.804.331 3.69 1.197 5.303.635 1.184 1.474 1.967 2.486 2.715 2.49-1.518 5.305-2.444 8.163-3.139 3.456-.842 6.994-1.403 10.372-2.544 1.625-.55 3.188-1.268 4.604-2.245 1.503-1.036 2.65-2.439 3.831-3.811l.185-.213c1.205-1.383 2.52-2.706 4.224-3.456 1.466-.645 3.4-.76 4.682-1.76.671-.523.727-1.281.798-2.058-.822.117-1.691-.071-2.51-.167l-.424-.05c-.774-.092-1.531-.193-2.293-.39-.141-.037-.141-.25 0-.287.901-.232 1.794-.331 2.717-.44l.217-.027c.835-.109 1.714-.275 2.533-.091a6.928 6.928 0 01.657-1.629c.418-.752 1.209-1.604 1.316-2.482a1.438 1.438 0 00-.152-.803l-.043-.08a.664.664 0 00-.203-.245c-.01.012-.032.025-.077.039-.631.199-1.181-.11-1.473-.586-1.24.154-2.592.102-3.755.154l-1.175.057c-1.256.057-2.569.082-3.749-.171-.165-.036-.214-.31-.049-.381 1.45-.62 3.21-.818 4.763-1.057.868-.133 1.742-.235 2.612-.352.579-.078 1.194-.207 1.794-.238 1.505-1.874.694-4.831-1.4-5.638-.763.336-1.449.141-2.283.069a27.852 27.852 0 00-2.501-.116c-1.674.007-3.448.448-5.105.258-.27-.031-.52-.39-.252-.609 1.269-1.036 3.087-1.373 4.698-1.594l.333-.045c.54-.071 1.197-.174 1.878-.235.154-.301.431-.528.846-.585.123-.017.247-.026.371-.037l-.002-.012c1.012-.049.968-1.76.691-2.416zm-69.31 32.004a.913.913 0 01-.059.079l-.032.037.166-.067-.076-.049zm86.976-35.671c-4.261-.458-8.528-.361-12.802-.238-.342 1.118-1.532 2.071-2.685 2.107.903 1.375.996 3.236.363 4.694 1.345.535 2.503 1.497 3.206 2.867.975 1.898.847 4.011-.116 5.765.822.745 1.307 1.955 1.259 3.095-.055 1.271-.812 2.357-1.441 3.409-.68 1.139-.703 2.141-.912 3.416-.306 1.866-1.564 2.997-3.182 3.704l.086.339c.417 1.624.936 3.339 2.129 4.527 1.534 1.529 3.914 1.514 5.941 1.611l.098.005c1.856.093 3.711.202 5.567.307l1.392.078c2.136.117 4.188.131 5.932-1.281 2.847-2.307 4.799-6.123 6.034-9.502 2.593-7.092 2.624-14.875 1.434-22.262-3.992-1.287-8.134-2.193-12.303-2.641zm-35.437 11.767l.031.002c.877.1 1.48.811 1.695 1.654.312 1.225.159 2.333.909 3.439.772 1.138 1.246 2.049 1.358 3.454.046.578.025 1.155.154 1.721l.093.396c.099.423.18.83.131 1.284-.045.415-.247.737-.662.87-1.352.433-2.397-.565-2.746-1.826-.302-1.089.101-2.387-.325-3.41-.236-.567-.671-1.041-.917-1.612a5.265 5.265 0 01-.405-1.772c-.074-1.163.954-2.561.38-3.615-.122-.225.016-.592.304-.585zm-17.969-12.005c.916-.186 1.955-.613 2.858-.258.465.183.694.749.302 1.143-.681.683-1.671.721-2.589.882l-.08.014c-1.085.201-2.172.392-3.26.572-2.048.339-4.1.639-6.16.894a157.72 157.72 0 01-6.36.671l-.822.067c-1.794.144-3.661.252-5.422-.023-.256-.04-.214-.413 0-.478 1.929-.584 4.044-.74 6.038-.988 2.12-.263 4.237-.541 6.347-.87a220.43 220.43 0 006.309-1.074c.948-.176 1.894-.36 2.839-.552zm33.054-1.875c-.804-.285-1.689-.706-2.56-.565-1.502.243-2.839 1.707-4.028 2.671l.597-.116c3.055-.587 7.1-1.22 9.665.723.006-.011.011-.022.019-.033.207-.315.447-.56.708-.829.025-.024.05-.048.073-.073l.142-.15-.323-.112c-.692-.245-1.512-.561-1.641-.607l-.009-.003c-.883-.299-1.766-.595-2.643-.906zm-25.099-64.055c-.126-1.617 2.39-1.604 2.515 0 .272 3.502-.516 6.971-2.212 10.042-.012.022-.026.042-.039.063a49.369 49.369 0 003.23 1.555 47.404 47.404 0 004.286 1.625c1.316.424 2.937.591 4.043 1.472 2.333 1.859 1.456 5.715 1.008 8.215l-.07.394c-.224 1.286-.385 2.606.157 3.841.578 1.318 1.749 2.296 2.793 3.24l.211.191c.925.843 1.983 1.868 2.661 3.011.62-1.281 1.464-2.328 2.357-3.507.637-.841.183-1.119-.274-1.94-.441-.791-.656-1.634-.518-2.537.254-1.666 1.585-2.869 2.91-3.774 1.565-1.067 3.312-1.858 4.93-2.851 3.324-2.041 6.561-4.374 9.477-6.965.081-.071.22.023.156.12-2.304 3.506-5.005 6.535-8.325 9.107-1.347 1.042-2.761 1.907-4.185 2.816l-.409.263c-.572.37-1.285.866-1.543 1.496-.26.634.295 1.113.593 1.639.948 1.668.491 3.225-.633 4.64l-.052.065c-1.117 1.377-1.964 2.657-2.368 4.416-.87 3.779.341 7.714 1.609 11.261l.051.14c.686 1.912 1.415 3.81 2.011 5.752l.164.537c.54 1.788.982 3.55.376 5.388-.206.625-1.058.773-1.412.184-1.248-2.074-1.559-4.57-2.342-6.85-.763-2.223-1.638-4.405-2.375-6.637-.949-2.873-1.584-5.966-1.239-8.98-.01-.018-.021-.034-.03-.053l-.241-.528c-.659-1.431-1.295-2.68-2.492-3.821-1.249-1.19-2.605-2.243-3.588-3.683-2.134-3.128-.814-6.608-.556-10.028l.029-.42c.047-.71.073-1.675-.391-2.167-.522-.553-1.745-.694-2.437-.939-1.789-.633-3.551-1.371-5.23-2.257-1.598-.843-3.146-1.775-4.587-2.866l-.731-.55c-1.152-.87-2.347-1.82-3.12-3.005-.089-.136.062-.356.224-.291 1.289.524 2.468 1.357 3.674 2.081.019-.044.041-.089.065-.133 1.493-2.703 2.107-5.698 1.869-8.772zm41.193 18.518c.514-1.41 2.856-1.301 2.762.374-.071 1.287-.617 2.448-1.116 3.616l-.054.125a23.24 23.24 0 01-1.823 3.476c-1.361 2.132-2.956 4.111-4.659 5.979-1.544 1.693-3.57 2.729-5.905 2.557-.984-.073-1.977-.323-2.839-.815-1.024-.584-2.137-2.338-3.443-1.913-.126.041-.244-.144-.135-.232 1.508-1.215 3.22.669 4.664 1.123 2.176.684 4.409-.072 5.809-1.832 1.462-1.837 2.808-3.894 4.037-5.895a28.416 28.416 0 001.685-3.156c.497-1.097.61-2.289 1.017-3.407zm-3.507-8.674c-.063-.195.178-.38.349-.269.991.645 1.85 1.498 2.764 2.246a138.81 138.81 0 003.074 2.442c1.512 1.166-.242 3.313-1.573 2.039-1.822-1.743-3.818-4.022-4.614-6.458zm-5.441-6.823c.402-1.553 2.784-.912 2.437.623l-.012.046c-.657 2.536.279 5.117 2.278 6.761l.073.06c1.264 1.012-.527 2.781-1.779 1.779-2.732-2.188-3.869-5.905-2.997-9.269z" fill="#000"/><path fill-rule="evenodd" clip-rule="evenodd" d="M169.007 79.177c-4.154-25.188-35.875-29.73-56.544-24.428-.381-4.845-3.426-9.126-7.225-11.942-16.14-11.643-35.248 8.124-31.422 25.16.686 5.162 4.801 11.051 10.559 10.168-7.237 13.73-10.066 41.418 5.88 49.977 1.539 1.098 1.794 3.327 2.978 4.756 1.922 2.305 10.134 5.241 14.576 2.888 1.396 1.286 3.006 2.537 4.889 2.982 9.727 7.806 23.942 9.567 35.787 6.346 7.297-1.241 14.862-4.541 18.616-11.284 3.181-5.131 1.715-11.143.257-16.574-.63-2.988-1.041-5.999-1.293-9.036.517-.606.546-1.447.675-2.212.56-2.714 1.784-5.233 2.396-7.939 1.37-6.143 1.132-12.706-.129-18.862z" fill="#D08B5B"/><path fill-rule="evenodd" clip-rule="evenodd" d="M78.814 51.881c3.588-6.85 10.623-10.716 17.658-10.186 7.198.542 12.706 5.517 13.982 13.55l.037.244.077.522-.07.024.034.059.06.101c.071.117.159.25.279.423l.16.229.539.758.038.054.115.166.231-.082c11.278-3.948 23.84-3.908 35.069.29l.34.129.313.12.177.047c6.884 1.825 12.386 6.214 16.152 12.499l.113.191.115.196c3.438 5.919 5.2 13.234 5.076 20.58l-.004.224-.002.036-.019.221c-.163 1.763-.606 3.339-1.521 5.74l-.117.305-.181.466-.565 1.433-.138.356-1.619 4.262.3-4.277c.033-.476.052-.894.068-1.531l.003-.115.036-1.81.011-.405c.005-.188.011-.358.019-.523l.011-.247.022-.384.005-.08-.01-.086c-.345-2.718-1.59-5.04-3.732-7.239l-.112-.113-.113-.114-.135-.133c-1.579-1.548-3.175-2.73-6.481-4.902l-.142-.094-1.921-1.253-.72-.472c-1.585-1.047-2.551-1.725-3.572-2.516l-.22-.171-.172-.136c-1.769-1.403-3.15-2.782-4.211-4.27l-.099-.14-.209-.3.15-.32-.003.004v-.001l.007-.034.01-.058.011-.07a7.685 7.685 0 00.056-.744l.004-.114.001-.1-.039.117c-2.048 5.926-6.901 10.87-13.742 14.52l-.208.11-.235.122c-6.742 3.498-14.99 5.507-22.141 5.563l-.23.002h-.228l-.175-.145c-.657-.542-1.864.133-1.644 1.098 2.032 8.932 2.458 18.176 1.217 27.084l-.044.311-.005.029-.047.252c-.041.225-.08.455-.123.72l-.067.428-.259 1.735-.117.743-.051.301c-.437 2.528-.991 4.248-1.997 5.732l-.096.139-.099.095-.097.098c-.198.204-.323.37-.383.486l-.013.025-.008.016.018.007c.32.115.974.092 1.519-.058l.068-.02.064-.019.441-.144.308.434.092.128c.169.234.345.47.566.758l.26.338.6.773-.551.382c-1.86 1.288-4.46 1.032-7.222-.176l-.108-.047-.039-.019c-1.317-.699-2.18-1.544-3.6-3.344l-.167-.212-.633-.813-.24-.304a19.625 19.625 0 00-.457-.554l-.048-.056-.168-.193-.037-.074c-.695-1.404-1.69-2.337-3.43-3.34l-.245-.14-.157-.108c-4.416-3.069-7.022-7.91-8.118-14.189-.857-4.908-.768-10.431.017-16.633l.038-.296.04-.308c.68-5.22 2.233-10.093 4.588-14.53l.122-.228.11-.204-.552-.44-.227-.177a7.555 7.555 0 00-.448-.325l-.067-.043-.062-.039-.017.032-.421-.046c-1.78-.19-3.535-.961-4.964-2.15l-.117-.099-.115-.115c-2.761-2.815-4.117-6.718-4.118-11.174-.001-3.94 1.077-8.131 2.92-11.658l.092-.173.105-.194z" fill="#E8E1E1"/><path fill-rule="evenodd" clip-rule="evenodd" d="M168.674 92.005c-.24 3.037-1.524 5.77-2.599 8.6.117-1.675.062-3.418.179-5.157-1.25-10.889-16.022-13.75-21.756-21.984.217-.465.295-4.622-.56-3.453-3.317 14.55-23.031 21.85-36.528 21.878-1.021-.843-3.045.048-2.663 1.729 2.018 8.871 2.46 18.15 1.164 27.163-.611 3.183-.714 7.013-2.618 9.755-2.022 1.928.408 2.083 1.746 1.648.373.525.767 1.036 1.162 1.544-1.922 1.331-4.725.605-6.714-.281-2.212-1.174-3.477-3.448-5.08-5.272-.875-1.766-2.202-2.78-3.908-3.737-9.493-6.468-9.248-20.657-7.885-30.912 3.97-30.516 37.756-45.24 64.87-34.638 14.643 3.753 21.504 18.93 21.19 33.117zM80.359 74.728c-5.79-5.78-4.625-15.888-.985-22.552 7.294-13.926 28.011-13.473 30.492 3.406-10.565 3.628-19.48 11.408-24.787 21.232-1.728-.185-3.399-.957-4.72-2.086zm88.648 4.454c-4.154-25.189-35.874-29.73-56.545-24.428-.38-4.845-3.425-9.126-7.225-11.943-16.14-11.642-35.247 8.125-31.422 25.162.687 5.16 4.802 11.05 10.56 10.167-7.238 13.73-10.066 41.418 5.88 49.977 1.538 1.098 1.794 3.327 2.978 4.756 1.922 2.305 10.134 5.241 14.576 2.888 1.056 1.299 7.051 5.25 6.614 1.377-.441-1.043-1.803-1.315-2.711-1.831-1.907-1.056-3.564-2.543-4.866-4.29 4.089-11.559 3.778-24.428 1.487-36.33 13.689-.69 29.796-6.705 35.834-19.913 4.081 9.612 16.739 10.85 19.936 21.596.193 5.645-1.015 11.205-.139 16.853.257 5.531 3.174 11.026 1.487 16.521-4.711 11.983-21.67 13.742-32.874 13.241-2.662-.221-4.871-1.662-7.059-3.031-1.311-.624-2.872.681-2.068 2.074 3.067 4.291 9.377 4.666 14.222 4.512 12.574-.748 30.746-4.472 31.399-20.037-.415-6.171-2.83-12.076-3.006-18.309.517-.605.546-1.446.675-2.212.56-2.714 1.784-5.232 2.396-7.938 1.37-6.143 1.132-12.706-.129-18.862z" fill="#000"/><path fill-rule="evenodd" clip-rule="evenodd" d="M143.152 128.274a8.601 8.601 0 01-3.614-2.781c-.322-.43-.405-.883-.338-1.298.076-.466.352-.889.728-1.172.377-.284.849-.425 1.305-.353.397.062.791.279 1.104.729l.065.09a5.698 5.698 0 002.086 1.752 4.7 4.7 0 002.582.454c1.737-.196 2.935-1.136 4.208-2.413.158-.161.315-.327.474-.496a.74.74 0 01.394-.303.842.842 0 01.543.008.859.859 0 01.427.324.8.8 0 01.135.524c-.117 1.322-.808 2.503-1.79 3.43-1.091 1.03-2.537 1.742-3.898 1.992-1.499.275-3.027.078-4.411-.487zm5.119-20.408c1.595.97 4.026 3.232 2.309 5.637-2.02 2.121-4.928-.31-6.362-1.41-1.329-.852-2.822 1.34-1.589 2.335 10.357 7.671 14.56-6.308 6.448-7.702-.893-.154-1.224.84-.806 1.14zm-18.56-8.923c.176-2.189 3.508-2.686 3.84-.52.296 1.94-.053 3.722-.927 5.469-.834 1.669-2.932.891-3.091-.629-.213-2.037.068-2.959.178-4.32zm25.365-.97c.465-.608 1.136-1.023 1.939-.788 2.511.733 1.771 4.3.889 6.035-.479.943-2.028 1.182-2.728.352-1.141-1.353-1.687-4.056-.237-5.39.04-.068.084-.138.137-.208zm-22.487-8.608l.397-.07c1.227-.211 2.752-.415 3.62.572.461.523.619 1.495 0 1.996-1.088.882-2.292.54-3.596.615-1.075.061-2.108.24-3.143.535-2.272.65-4.123 1.836-6.063 3.138-.254.17-.514-.155-.393-.394 1.12-2.194 3.29-3.997 5.464-5.095 1.161-.587 2.43-1.074 3.714-1.297zm20.198-.983l.304.063c3.303.69 7.596 2.07 9.16 5.317.06.459-.003.557-.055.621l-.017.022c-.042.055-.076.13-.274.193a7.626 7.626 0 01-.168-.042c-.717-.188-1.284-.447-1.833-.716l-.596-.294c-.691-.338-1.388-.665-2.127-.906a25.024 25.024 0 00-4.845-1.07 1.987 1.987 0 01-.971-.37 1.46 1.46 0 01-.544-.828c-.116-.466-.083-.82.168-1.241.188-.316.457-.536.767-.662a1.799 1.799 0 011.031-.087z" fill="#000"/><path fill-rule="evenodd" clip-rule="evenodd" d="M167.178 109.154c-2.565 2.651-6.846 3.412-10.259 1.99-8.763-3.663-4.474-15.086 2.284-18.154.844-.21 1.972-.71 3-.823.093-.046.295.086.541-.039 7.451.833 9.148 12.405 4.434 17.026zm-28.263.678c-2.876 3.817-8.225 4.995-12.595 3.22-8.633-3.401-5.571-13.53.336-17.502 12.477-4.69 17.629 7.244 12.259 14.282zm-18.714-8.458l-.024-.009.136-.061c-.014.039-.031.077-.045.116-.022-.016-.042-.034-.067-.046zm52.916-4.126c-.704.002-1.722.117-2.305.606-1.438-4.85-6.745-9.34-11.361-6.067-3.635 1.17-6.332 3.763-7.865 7.211-2.764-1.645-7.11-.942-9.507 1.233-1.57-5.19-5.433-7.006-10.031-7.274-5.019-.823-10.021 4.053-11.582 7.965-1.298-.148-3.237-.561-4.458.24-7.924-2.079-21.778-3.225-23.389-2.07-1.148.441-1.778 3.152-.174 3.298 1.397-.198-.164-1.986 1.245-2.181 7.505-.466 14.79 1.046 22.216 1.681.663.892 2.805 1.19 3.948.832-1.8 6.635 2.085 11.15 7.906 12.502 9.015 2.072 16.857-5.995 14.5-14.386 2.731-1.359 5.872-1.3 8.846-.585-4.971 18.301 24.492 17.48 19.891-1.772 3.062 1.524 3.727-.925 2.12-1.233z" fill="#000"/></svg>