<svg fill="none" xmlns="http://www.w3.org/2000/svg" viewBox="0 0 240 324"><path fill-rule="evenodd" clip-rule="evenodd" d="M192.796 271.458c-.512-4.762-.828-9.558-1.01-14.344-.181-4.78.056-9.619.16-14.401.212-9.729.556-19.48-.218-29.193-.732-9.18-2.411-18.296-5.062-27.117-1.291-4.295-2.651-8.764-4.774-12.733-2.135-3.991-5.517-6.648-9.231-9.086-3.955-2.594-7.878-5.238-11.817-7.857-3.307-2.198-9.258-4.757-11.971-7.695-2.855-3.093-3.391-10.758-5.293-14.421-1.851-3.568-7.092-5.895-11.128-5.895-6.68 0-11.741-.342-17.233 5.839-2.741 3.085-.56 6.203-3.433 9.163-2.64 2.721-9.394 5.518-12.798 7.097a138.729 138.729 0 01-12.496 5.049c-4.325 1.518-8.76 2.649-13.11 4.081-4.168 1.372-9.612 7.03-12.849 10.024-3.01 2.784-3.756 2.472-6.044 5.853-5.02 7.421-10.046 14.927-14.044 22.961-1.992 4.003-3.92 8.213-4.642 12.657-.771 4.741-.007 9.322 1.243 13.912 1.272 4.671 5.312 9.118 6.629 13.777.606 2.148-1.476 4.491-.518 6.514.478 1.011 1.08 1.91 1.766 2.791.529.678 2.589.528 2.856 1.358.269.839-1.222 2.579-1.244 3.447-.031 1.242-.08 2.485-.122 3.727l-.24 7.343-.475 14.477c-.052 1.575-.127 3.114.25 4.609a3.351 3.351 0 01-.384-.419c-.346-.452-1.08-.069-.787.46.49.883 1.196 1.505 2.025 1.951.963 1.421 146.828 4.593 147.545.44.403-2.33-.33-4.824-.623-7.14-.305-2.411-.668-4.812-.928-7.229z" fill="#D08B5B"/><path fill-rule="evenodd" clip-rule="evenodd" d="M40.787 202.146l150.654 8.24c.108 1.043.204 2.088.287 3.134.774 9.713.43 19.464.218 29.193-.028 1.289-.066 2.583-.102 3.878l-14.862 2.455-105.653 2.54-26.406-3.152-1.096-1.901-.76-3.309c.327-1.358.983-2.764.607-4.095-.11-.387-.238-.774-.382-1.159l.136-2.655-2.641-33.169z" fill="#FDEA6B"/><path fill-rule="evenodd" clip-rule="evenodd" d="M44.626 211.449c.357-1.023 1.99-.58 1.63.449-1.848 5.293-.537 11.054 1.46 16.107.4 1.014-1.234 1.449-1.63.449-2.1-5.315-3.4-11.446-1.46-17.005zm12.386 30.236c5.21.733 10.424 1.185 15.67 1.551.234.017.437-.019.613-.095a304.448 304.448 0 00-.383 7.213c-1.43-.04-2.89.055-4.308.017a118.103 118.103 0 01-16.242-1.583c-1.322-.222-3.002-.357-4.508-.797-1.424-.416-2.692-1.105-3.357-2.403-.566-1.099-.67-2.445-.67-3.66 0-.837.144-1.687.23-2.53.108-.076.205-.167.283-.268 1.572.496 3.203.845 4.8 1.183 2.601.554 5.24 1.002 7.872 1.372zm-2.938-19.542a8.338 8.338 0 001.345 4.442c.588.921-.875 1.768-1.46.854-1.023-1.602-1.541-3.399-1.575-5.296-.02-1.091 1.67-1.087 1.69 0zm133.548 17.622c.706.04 1.416.064 2.123.102.624.534 1.488.807 2.277.637.028.069.052.145.075.234.139.543.209 1.126.289 1.68.081.545.142 1.095.184 1.644.021.277.154.903-.015 1.144-.152.217-.488.198-.72.226-.625.067-1.259.099-1.889.152l-3.566.311c-1.164.101-2.442.07-3.581.376a542.34 542.34 0 01-.537-6.856c1.765.26 3.609.253 5.36.35zm-147.913-3.789c.71 1.372 1.365 2.72 2.724 3.544.177.106.376.163.578.178a21.25 21.25 0 00-.331 1.938c-.186 1.359-.226 2.764.114 4.104.332 1.304.88 2.469 1.958 3.304.501.389 1.048.685 1.623.919a1.892 1.892 0 00-.125.841c-.137.691-.228 1.395-.327 2.069a145.762 145.762 0 00-.607 4.5c-.342 2.993-.61 5.985-.836 8.989a297.086 297.086 0 00-.524 8.995c-.07 1.534-.131 3.069-.188 4.605-.057 1.579-.313 3.194.384 4.659.562 1.183 2.462 1.115 3.045 0 .74-1.419.521-3.103.54-4.659.02-1.464.045-2.931.077-4.396.063-2.999.156-5.996.23-8.995.072-2.927.16-5.852.22-8.779.03-1.533.031-3.065.04-4.597.004-.85.04-1.756-.023-2.642.528.124 1.06.23 1.586.338 4.016.824 8.075 1.424 12.159 1.796 2.05.186 4.109.317 6.166.392 1.513.054 3.08.16 4.617.103-.12 3.669-.176 7.34-.17 11.012.005 2.648.04 5.296.106 7.944.036 1.393.066 2.786.108 4.178.019.626.019 1.258.061 1.881.013.195.04.383.076.569-.14.395-.255.786-.35 1.152-.465 1.775-.465 3.481-.258 5.29.177 1.534 1.468 2.957 3.173 2.418.277-.087.554-.178.828-.271 2.51.286 5.035.351 7.58.4 3.721.072 7.444.095 11.166.114 7.301.038 14.605.057 21.909.078 14.676.042 29.353.082 44.03.125 4.073.013 8.146.023 12.22.036 2.108.006 4.212.008 6.319.089.982.038 1.966.09 2.949.105 1.139.019 2.146-.309 3.234-.606.615-.172.858-.789.727-1.311.985.235 2.178-.264 2.514-1.373a3.337 3.337 0 00-.211-2.425v-.002c-.706-4.457-1.602-8.894-2.305-13.353-.771-4.884-1.513-9.779-2.166-14.682-.49-3.703-.893-1.078-1.242-4.798 1.519.118 3.237-.345 4.741-.541 1.08-.14 2.168-.252 3.249-.4-.08 1.091-.057 2.203-.086 3.249-.057 2.077-.032 4.146.021 6.224.101 4.009.327 1.676.689 5.668.365 4.022.813 8.03 1.356 12.033a368.48 368.48 0 001.342 9.052c.183 1.13.242 2.202 1.09 3.052.644.644 1.96.589 2.387-.309.541-1.135.296-2.107.095-3.299a359.387 359.387 0 01-1.409-9.035 536.194 536.194 0 01-1.578-11.906c-.482-4.005-.981-1.665-1.454-5.67-.239-2.021-.477-4.037-.756-6.051-.142-1.036-.23-2.139-.416-3.206l.177-.03c1.285-.235 2.381-.96 2.704-2.283.309-1.266-.059-2.722-.319-3.964-.222-1.059-.422-2.41-1.103-3.317 2.4-3.058 3.961-6.906 4.957-10.606 1.084-4.031 1.538-8.238 1.634-12.403a73.26 73.26 0 00-1.078-14.342c-.02-1-.066-1.999-.14-2.997-.727-9.798-3.777-21.395-13.449-25.973a1.856 1.856 0 00-.119-.053c-.758-.907-1.704-1.723-2.469-2.485a50.764 50.764 0 00-4.27-3.839c-2.97-2.36-6.228-4.246-9.615-5.943-3.424-1.718-6.9-3.331-10.246-5.206-2.916-1.635-5.54-3.605-8.031-5.829-2.799-2.5-4.791-5.871-5.573-9.55-.04-.193-.325-.14-.329.044-.205 6.744 4.345 12.704 9.583 16.475 6.262 4.504 13.823 6.636 20.174 11.003 1.578 1.084 3.055 2.308 4.46 3.607-2.153-.219-4.344-.08-6.362.516-.794-.049-1.593-.063-2.389-.101a1218.139 1218.139 0 00-16.621-.702 1238.88 1238.88 0 00-21.889-.581c-14.664-.26-29.347-.311-44.01.114-3.975.114-24.882-.678-26.818-.455 2.846-2.464 5.969-4.476 9.402-6.131 4.295-2.065 8.734-3.443 13.32-4.702 9.446-2.594 19.255-5.094 26.814-11.682a27.367 27.367 0 004.915-5.607c1.305-1.991 2.757-4.54 2.792-6.968.026-1.724-2.374-2.352-3.228-.875-.53.915-.792 1.919-1.225 2.879a20.93 20.93 0 01-1.511 2.745c-1.117 1.725-2.503 3.263-4.012 4.652-3.215 2.963-7.111 5.133-11.142 6.776-9.152 3.726-19.162 5.298-27.834 10.21-3.795 2.149-7.426 5.115-9.706 8.898-.368.057-.733.125-1.099.201.273-.345.548-.689.824-1.032.182-.224-.099-.519-.32-.321-4.313 3.838-8.285 7.983-11.885 12.501-3.443 4.325-6.654 8.856-8.928 13.92-4.086 9.097-4.986 19.501-2.875 29.228a45.946 45.946 0 002.419 7.754 48.583 48.583 0 001.751 3.817z" fill="#000"/><path fill-rule="evenodd" clip-rule="evenodd" d="M132.684 46.28c11.971 0 26.963 13.69 31.351 19.516 3.69 4.897 3.168 30.128 3.168 45.096 0 3.13-1.412 9.054-1.924 12.049-1.878 10.972-10.058 20.174-26.249 20.174-13.183 0-23.329-4.186-33.139-14.893-2.238-2.443-13.17 6.302-15.405 3.153-5.839 0-10.721-54.693.743-71.098 11.464-16.404 29.484-13.996 41.455-13.996z" fill="#D08B5B"/><path fill-rule="evenodd" clip-rule="evenodd" d="M96.705 50.133c6.917-6.309 16.132-9.344 25.429-9.12 4.815.117 9.614 1.036 14.161 2.61 2.275.791 4.478 1.823 6.584 2.99.759.419 1.459.91 2.132 1.432l.168.131h.002c1.807.651 3.42 1.82 4.883 3.187 2.932-.234 5.888.03 8.724.937 3.946 1.264 7.6 3.578 10.165 6.864 2.989 3.826 3.983 8.467 3.628 13.258l-.065.814c-.351 4.233-.979 9.676-4.444 12.457a2.697 2.697 0 01-.856.47c2.233 3.833 4.065 8.09 5.161 12.389 4.185 16.419.968 33.543-4.064 49.369-.414 1.304-2.381 2.17-3.382.896-1.788-2.278-4.385-4.016-7.307-4.341-1.803-.201-3.597.163-5.3-.657a4.85 4.85 0 01-1.777-1.495 22.894 22.894 0 01-9.045 1.482c-5.04-.207-10.429-1.957-13.897-5.795-.557-.616-.698-1.308-.569-1.932a7.454 7.454 0 011.341-.344c4.398 2.599 9.245 4.335 14.455 4.444 3.011.063 5.947-.359 8.388-2.243.528-.408 1.014-.86 1.463-1.345 5.103-3.291 8.701-8.881 10.412-14.869 1.594-5.584 1.397-11.398.849-17.126l-.289-3.022c-.421-4.436-.812-8.886-.922-13.34l.033-.002c1.078-.07 1.086-1.761 0-1.691-2.808.182-5.595-.28-8.394-.078-.023-1.327-.119-2.648-.507-3.927-.222-.731-1.492-.876-1.627 0-.18 1.17-.246 2.335-.265 3.511-4.189-.056-8.375-.41-12.565-.264-.772-.826-1.018-2.292-1.38-3.311-.053-.15-.105-.298-.16-.448a23.955 23.955 0 01-1.361 4.276l-1.027.003c-5.83.028-11.779.203-17.472 1.416-.396-.304-.632-.835-.695-1.318-.413-3.14-1.003-6.196-2.047-9.188l-.15-.422-.038-.112c-.77 1.246-1.688 2.407-2.69 3.488a35.448 35.448 0 01-1.844 1.838c-.617.687-1.255 1.364-1.873 2.053.024.125.045.252.062.382.189 1.43.209 2.88.07 4.315a20.722 20.722 0 01-2.155 7.408l-.037.232c-.178 1.084-.432 2.204-1.024 3.02a7.737 7.737 0 011.639 2.924c.294.981-1.06 1.831-1.762 1.028a8.167 8.167 0 00-1.858-1.586c-.043.058-.121.087-.208.038-1.895-1.055-5.114-.736-7.007.258-2.355 1.234-3.274 3.768-3.013 6.336.25 2.454 1.322 5.322 3.398 6.579.953.577 1.696.626 2.708.349.323-.088.724-.358.896-.492l.17-.137c.663-.525 1.281-.885 2.064-.899.801-.25 1.606.097 1.912.939l.019.054c.144.429.405.968.348 1.624-.059.701-.379 1.34-.858 1.853a4.268 4.268 0 01-.261.26c8.243 8.947 9.301 22.887 5.074 34.063-.183.491-.379.975-.584 1.455-.706 1.644-3.426 1.135-3.771-.495a36.437 36.437 0 00-1.128-4.098l-.112-.326c-.251-.718-.485-1.443-.738-2.162l-.025-.082-.032-.112-.428.936-1.301 2.826c-.608 1.319-2.542.602-2.614-.669l-.002-.043a22.572 22.572 0 00-.892-5.745l-.17.212c-2.537 3.145-5.515 6.092-9.6 6.818-1.024.181-2.183-.892-1.48-1.93.292-.429.572-.869.838-1.315a8.953 8.953 0 01-.647-.333c-1.55-.873-2.84-2.116-3.907-3.526-2.262-2.988-3.072-6.75-3.27-10.432-.21-3.891.131-7.993 1.191-11.747.46-1.623 1.082-3.181 1.8-4.692-.05-.135-.098-.27-.147-.406a61.716 61.716 0 01-1.941-6.628 64.78 64.78 0 01-1.71-13.85c-.127-8.333 1.307-16.8 4.328-24.571 3.12-8.014 7.813-15.735 14.199-21.558zm-3.886 72.861c-.573-.904-2.007-.089-1.475.821l.02.033c.909 1.435 1.335 3.067 1.858 4.667.335 1.029 1.964.589 1.625-.451l-.112-.347c-.52-1.622-.995-3.271-1.916-4.723zm4.991-17.263l.38-.185c1.201-.574 2.253-.965 3.672-.464 1.9.67 3.934 2.803 2.65 4.872-.472.763-1.311 1.067-2.176.888-1.457-.303-1.833-1.619-2.572-2.699l-.127-.183c-.451-.653-1.022-1.556-1.772-1.813-.17-.059-.242-.325-.055-.416zM98.88 61.8l.122-.11c.816-.723-.381-1.915-1.193-1.196-3.715 3.29-5.005 8.441-6.932 12.83-.432.988 1.02 1.85 1.457.855 1.838-4.19 3.058-9.2 6.546-12.379zm44.639-1.44c-.97-.438-1.819.978-.886 1.444l.035.017c3.28 1.486 4.676 4.85 6.012 7.974.426.998 1.879.138 1.457-.852l-.241-.56c-1.395-3.22-3.021-6.5-6.377-8.022zm5.142-2.033c-1.028-.357-1.469 1.275-.449 1.632 2.781.97 4.689 3.062 6.298 5.455.603.896 2.064.05 1.454-.854-1.868-2.777-4.085-5.108-7.303-6.233z" fill="#000"/><path fill-rule="evenodd" clip-rule="evenodd" d="M143.152 128.274a8.601 8.601 0 01-3.614-2.781c-.322-.43-.405-.883-.338-1.298.076-.466.352-.889.728-1.172.377-.284.849-.425 1.305-.353.397.062.791.279 1.103.729l.066.09a5.69 5.69 0 002.086 1.752 4.7 4.7 0 002.582.454c1.737-.196 2.935-1.136 4.208-2.413.158-.161.315-.327.474-.496a.74.74 0 01.394-.303.84.84 0 01.542.008.857.857 0 01.428.324c.097.143.152.32.134.524-.116 1.322-.807 2.503-1.789 3.43-1.091 1.03-2.537 1.742-3.898 1.992-1.499.275-3.027.078-4.411-.487zm5.118-20.408c1.596.97 4.027 3.232 2.31 5.637-2.02 2.121-4.928-.31-6.362-1.41-1.329-.852-2.822 1.34-1.589 2.335 10.357 7.671 14.56-6.308 6.448-7.702-.893-.154-1.225.84-.807 1.14zm-18.56-8.923c.177-2.189 3.509-2.686 3.84-.52.297 1.94-.052 3.722-.926 5.469-.834 1.669-2.932.891-3.091-.629-.213-2.037.068-2.959.177-4.32zm25.366-.97c.465-.608 1.135-1.023 1.939-.788 2.511.733 1.771 4.3.889 6.035-.479.943-2.028 1.182-2.728.352-1.141-1.353-1.687-4.056-.237-5.39.04-.068.083-.138.137-.208zm-22.487-8.608l.397-.07c1.227-.211 2.752-.415 3.62.572.461.523.619 1.495 0 1.996-1.088.882-2.292.54-3.596.615-1.075.061-2.108.24-3.143.535-2.272.65-4.123 1.836-6.063 3.138-.254.17-.514-.155-.393-.394 1.12-2.194 3.29-3.997 5.464-5.095 1.161-.587 2.43-1.074 3.714-1.297zm20.198-.983l.304.063c3.303.69 7.596 2.07 9.16 5.317.06.459-.003.557-.055.621l-.017.022c-.042.055-.076.13-.274.193a7.626 7.626 0 01-.168-.042c-.717-.188-1.284-.447-1.833-.716l-.596-.294c-.691-.338-1.388-.665-2.127-.906a25.024 25.024 0 00-4.845-1.07 1.987 1.987 0 01-.971-.37 1.46 1.46 0 01-.544-.828c-.116-.466-.083-.82.168-1.241.188-.316.457-.536.767-.662a1.799 1.799 0 011.031-.087z" fill="#000"/><path fill-rule="evenodd" clip-rule="evenodd" d="M166.085 109.758c-1.423 1.912-4.06 2.521-6.492 2.31-5.246-.505-6.897-6.465-7.069-11.098 3.518.99-.298-6.021 11.728-6.792 4.239-.353 3.07 2.208 4.943 4.08-.039 3.926-.692 8.194-3.11 11.5zm-24.987-4.513c-3.097 14.51-20.057 11.059-21.839-2.021 1.645-1.161 1.212-4.03 3.256-5.069 3.239-2.07 7.288-1.982 10.966-1.933 4.702.323 6.042 2.272 8.457 4.397-.116 1.42-.451 3.103-.84 4.626zm31.705-13.47a28.544 28.544 0 00-.522-.082 1.565 1.565 0 00-.481-.172 8.202 8.202 0 00-1.264-.22c-6.028-1.356-19.973.57-20.548 5.717-1.92.64-3.581.067-5.806.124-1.693-7.082-30.971-6.082-32.379-1.813a.533.533 0 01-.017-.004c-1.352-.42-3.347-.318-4.896-.385a42.512 42.512 0 00-9.852.924c-6.058.963-14.326 2.09-10.112 9.658a.01.01 0 00.002.004c.727.744 1.96.145 2.005-.863-1.417-3.586 1.783-4.016 4.245-5.046 6.125-2.202 12.361-2.507 18.696-1.826.477.561 1.2 1.05 1.964 1.307 4.236.703 2.004 3.846 4.681 4.304-.492 10.956 12.806 16.937 20.51 9.735 3.077-3.009 3.81-7.466 4.523-11.484.377-.085.617-.291.757-.564.907-.906 1.477-1.742 3.27-1.991 1.794-.249 3.175.25 3.361.403.047.095.098.19.157.285.082.142.193.255.32.344-1.771 10.911 6.696 17.811 15.244 12.152 3.714-3.495 4.498-8.846 4.654-13.622.503-.304.822-.893.647-1.634-.24-1.02.324-1.904 1.221-2.348 1.165-.576.959-2.681-.38-2.903z" fill="#000"/></svg>