<svg fill="none" xmlns="http://www.w3.org/2000/svg" viewBox="0 0 240 324"><path fill-rule="evenodd" clip-rule="evenodd" d="M198.116 286.283c4.083-.197 2.44-7.342 2.147-9.966-3.232-9.583-2.472-20.039-3.744-30.084-.792-9.378-1.809-18.726-2.665-28.096-1.682-19.02-13.755-57.74-27.533-63.967-1.736-7.618-8.904-14.73-17.974-14.73-6.186-7.325-13.631-12.481-23.181-11.44-3.947.18-7.774 4.367-11.555 5.176-2.118.292-20.908-.46-24.672 1.776-2.622 1.347-4.989 3.836-4.218 7.004 1.23 3.839-2.592-.315-10.566 3.782-16.26 9.77-6.544 22.839-6.113 23.244-10.147 14.123-19.016 25.581-23.119 42.843-2.66 12.816-2.36 26.046-4.588 38.928-.787 4.467-1.994 8.781-3.3 13.118-1.416 5.677-2.104 19.826-2.884 19.952-1.421.353.821 3.272 2.327 3.275 41.752 6.928 84.161.287 126.137-.798 11.83-.412 23.672-.507 35.501-.017z" fill="#D08B5B"/><path fill-rule="evenodd" clip-rule="evenodd" d="M113.663 145.612c0 4.445 15.429 20.963 20.754 19.873 3.549-.726 8.913-5.464 16.09-14.213v-5.66l-1.55-6.161c8.78.309 15.668 7.272 17.364 14.719 13.64 6.165 25.61 44.176 27.479 63.391l.054.577c.856 9.37 1.873 18.718 2.665 28.095 1.272 10.045.512 20.501 3.744 30.084l.02.163c.337 2.744 1.834 9.61-2.167 9.803-11.829-.49-23.671-.395-35.501.017-41.976 1.085-84.385 7.726-126.137.798-1.506-.003-3.748-2.922-2.327-3.275.78-.126 1.468-14.275 2.884-19.952l.269-.897c1.201-4.036 2.298-8.062 3.03-12.221 2.229-12.881 1.93-26.112 4.589-38.928 4.103-17.262 12.972-28.72 23.119-42.843-.43-.405-10.147-13.474 6.113-23.244 7.974-4.097 11.796.057 10.566-3.782-.77-3.168 1.596-5.657 4.218-7.003 3.764-2.237 22.554-1.485 24.672-1.777.983-.21 1.97-.649 2.961-1.187l-.172.573c-1.825 6.118-2.737 10.468-2.737 13.05z" fill="#9FD8E5"/><path fill-rule="evenodd" clip-rule="evenodd" d="M134.835 170.228a.149.149 0 01.297 0l.295 2.847c.358 3.477.704 6.947.954 10.439.312 4.356.521 8.711.621 13.076.351 15.204.421 30.416.45 45.624a1268.599 1268.599 0 0110.356-.674l3.56-.216 1.465-.09c.99-.061 2.115-.311 2.808.567.277.351.416.807.157 1.224-.596.962-1.511.929-2.546.97-.977.04-1.954.078-2.931.116-2.094.081-4.187.158-6.281.217-2.197.062-4.394.112-6.591.149-.022 6.42-.288 12.832-.575 19.245l-.13 2.886c-.351 7.805-.729 15.616-1.266 23.41-.044.638-.946.636-.99 0-.605-8.778-1.003-17.573-1.399-26.362a586.544 586.544 0 01-.533-19.122c-.291.002-.581.006-.871.007-8.245.036-16.488.072-24.734-.005a.191.191 0 01.037.054c.596 1.409.653 3.207.639 4.719a23.2 23.2 0 01-.65 5.134c-1.43 6.042-5.12 11.454-9.323 15.928l-.137.146c-.991 1.048-2.129 2.1-2.737 3.435-.622 1.363-.838 2.957-1.145 4.421l-.035.169-1.2 5.542c-.381 1.761-.49 4.329-1.882 5.599-1.3 1.185-3.022.566-3.634-.96-.477-1.191-.002-2.499.281-3.689l2.217-9.321c.364-1.52.762-3.05 1.548-4.415.805-1.399 1.985-2.412 3.19-3.45a39.487 39.487 0 006.145-6.648c1.77-2.433 3.283-5.116 4.343-7.937.531-1.413.967-2.88 1.267-4.359.285-1.403.283-2.857.588-4.246.021-.096.102-.161.195-.191-.022-.061.011-.145.098-.151l6.743-.433c5.994-.387 11.988-.784 17.976-1.237l1.059-.076c-.083-8.506-.013-17.014.141-25.523.141-7.803.143-15.607.375-23.409.116-3.872.364-7.735.641-11.6.283-3.951.736-7.87 1.144-11.81zM71.52 215.471c-.072-.433.473-.702.724-.306 2.871 4.528 4.256 9.446 4.84 14.744.515 4.676.363 9.42.106 14.108-.273 5.001-.593 10-.916 14.998l-.496 7.664-1.246 19.214c-.089 1.374-.4 2.624-1.583 3.263-.15.125-.306.237-.488.334-.64.342-1.487.169-1.856-.487l.148.098c.129.081-.016-.032-.435-.34l-.356-.46a2.894 2.894 0 01-.49-1.233c-.102-.717.031-1.504.078-2.225l.816-12.599c.635-9.795 1.376-19.587 1.935-29.387.26-4.567.443-9.139.32-13.714-.123-4.55-.355-9.177-1.101-13.672zm24.84-84.341l.159-.026c5.703-.948 11.904-.771 17.116 1.98.044.022.024.094-.024.092l-1.678-.067c-5.311-.208-10.606-.331-15.828.917l-.535.129c-1.88.459-3.844 1.02-5.355 2.263-1.443 1.188-2.162 3.02-2.854 4.707l-.092.222c-.701 1.666-1.59 3.246-3.127 4.288-1.99 1.349-4.385 1.184-6.669 1.367-4.02.323-7.306 3.238-8.942 6.804-.99 2.16-1.412 4.581-1.496 6.943-.042 1.202-.049 2.451.112 3.646.05.381.523 1.773.763 1.739.535-.074 1.024.205 1.19.633a87.731 87.731 0 014.083-3.712 78.512 78.512 0 0111.228-7.998c3.027-1.77 6.22-3.525 9.525-4.851a1.575 1.575 0 00-.77.177c-.11.057-.218-.08-.132-.171 1.042-1.096 2.289-1.252 3.546-.96.269-.085.537-.168.807-.247.134-.039.2.146.091.218l-.308.197c1.371.46 2.718 1.363 3.784 2.076 3.063 2.048 5.759 4.552 8.492 7.008l.497.446c2.406 2.148 4.873 4.236 7.606 5.96 1.431.902 2.933 1.737 4.51 2.358 1.351.533 3.553.868 4.186 2.297.563.684.327 1.557-.332 2.018-1.111 1.223-3.335.433-4.66-.077a31.321 31.321 0 01-4.619-2.22c-2.865-1.682-5.506-3.774-7.967-5.999-2.569-2.324-4.993-4.793-7.492-7.189-1.083-1.039-2.141-2.102-3.226-3.139l-.545-.516c-.553-.519-1.342-1.329-2.185-1.819-1.588.948-3.201 1.857-4.776 2.829-2.197 1.358-4.33 2.813-6.43 4.316a98.234 98.234 0 00-11.429 9.608c-6.522 6.371-12.079 13.645-16.933 21.348l-.369.587c-2.758 4.409-5.367 8.96-7.217 13.832-2.035 5.361-3.024 10.998-3.562 16.689-.534 5.65-.714 11.328-1.31 16.972-.612 5.79-1.817 11.451-3.188 17.101l-.327 1.34c-1.24 5.061-2.52 10.121-3.157 15.302-.34 2.767-.546 5.571-.5 8.361.047 2.805.488 5.549.843 8.325.137 1.064-.91 1.951-1.846 2.092-1.076.162-2.001-.525-2.336-1.526-1.043-3.119-1.233-6.566-1.2-9.84.033-3.323.457-6.625 1.054-9.891 1.173-6.425 2.984-12.717 4.499-19.064a113.744 113.744 0 002.714-16.931c.501-5.947.801-11.913 1.716-17.817.902-5.828 2.601-11.395 5.163-16.71 2.332-4.838 5.24-9.393 8.288-13.807 3.701-5.361 7.767-10.462 12.311-15.109a2.514 2.514 0 01-1.212-.39c-1.178-.735-1.726-2.172-1.895-3.485-.394-3.07-.3-6.275.49-9.277 1.273-4.843 4.578-9.145 9.368-10.891 1.232-.449 2.543-.613 3.85-.645 1.239-.031 2.593.13 3.79-.263 1.903-.626 2.72-2.869 3.434-4.57l.033-.078c.917-2.167 2.017-4.024 4.003-5.377 2.118-1.444 4.772-2.101 7.271-2.525zm54.189 8.57c1.713-.594 3.856-.055 5.532.465 1.867.579 3.593 1.645 5.072 2.912a15.317 15.317 0 013.762 4.828l.087.177c.832 1.709 1.78 4.056 1.36 5.933a2.184 2.184 0 01-.041.155c3.4 1.674 6.54 3.772 9.275 6.43 3.184 3.095 5.88 6.617 8.162 10.423 9.062 15.113 10.657 33.263 11.727 50.499l.267 4.37c.581 9.437 1.262 18.851 3.028 28.157l.129.672c1.889 9.744 4.592 19.562 4.318 29.557-.082 2.995-4.506 2.975-4.635 0-.483-11.195-3.094-22.005-4.863-33.026-3.112-19.389-1.553-39.379-5.962-58.574-1.73-7.533-4.41-14.84-8.238-21.564-1.89-3.322-4.054-6.532-6.588-9.398-2.18-2.465-4.445-4.838-6.993-6.911-.814.815-2.441.4-2.866-.79-.292-.817-.207-1.772-.394-2.629a13.102 13.102 0 00-.733-2.33 15.38 15.38 0 00-2.651-4.13 17.023 17.023 0 00-4.004-3.283c-1.509-.901-3.16-1.17-4.751-1.828-.054-.022-.059-.094 0-.115zm6.658 103.624a.09.09 0 01.152-.063c.601.553.964 1.347 1.407 2.027.51.785 1.045 1.553 1.607 2.302 1.125 1.5 2.378 2.913 3.64 4.298a51.996 51.996 0 003.724 3.685c1.407 1.26 2.983 2.384 4.261 3.779 2.667 2.912 3.097 6.908 3.66 10.66l.062.406c.343 2.227.65 4.46.927 6.696.135 1.087.269 2.176.379 3.266l.034.346c.098 1.067.124 2.15-.489 3.083-.656.997-2.147 1.347-3.034.39-1.523-1.643-1.237-4.563-1.436-6.677a204.363 204.363 0 00-.557-5.239l-.106-.872c-.245-1.983-.444-4.007-.897-5.956-.4-1.717-1.162-3.012-2.413-4.256-1.259-1.252-2.568-2.422-3.731-3.771a37.303 37.303 0 01-3.347-4.566c-.858-1.37-1.545-2.86-2.174-4.349l-.105-.248c-.608-1.452-1.611-3.341-1.564-4.941zm21.996-62.358c.013-.202.312-.205.317 0 .038 1.742.074 3.484.11 5.225.291 14.034.112 28.102 1.519 42.087.664 6.595 1.886 13.092 3.301 19.562.724 3.311 1.483 6.614 2.204 9.925.703 3.228 1.457 6.47 2.015 9.727.548 3.202 1.039 6.427 1.259 9.67l.028.423c.094 1.57.547 3.88-.317 5.273-.937 1.508-2.731 1.535-3.734.095-.943-1.351-.708-3.756-.875-5.368a239.234 239.234 0 00-.551-4.926c-.397-3.197-.919-6.387-1.463-9.562-1.131-6.613-2.773-13.143-3.985-19.745-1.242-6.765-2.124-13.578-2.161-20.466-.037-6.947.698-13.88 1.069-20.811.377-7.04.805-14.074 1.264-21.109zm-66.27-43.651c.376-1.268 1.706-2.062 3.002-1.705 1.189.327 2.17 1.769 1.705 3.004-.507 1.347-1.393 2.496-2.14 3.72-.69 1.131-1.696 2.022-2.399 3.134l.774.835c.388.417.777.831 1.169 1.238l1.351 1.4a131.304 131.304 0 003.2 3.22c3.201 3.089 6.453 6.077 10.038 8.722.816.602 1.639 1.2 2.484 1.761l.315.209c.58.38 1.228.753 1.928.689 1.703-.157 3.241-1.966 4.412-3.091l.061-.059c2.899-2.76 5.584-5.778 7.932-9.022a65.874 65.874 0 001.517-2.196c-1.135-1.327-.864-3.915-.926-5.524-.044-1.131-.048-2.262-.054-3.394l-.003-.228c-.014-.732-.047-1.435.428-2.038.028-.035.085-.034.121-.015.65.341.851.912 1.129 1.553l.029.067c.338.769.661 1.545.989 2.319.343.809.657 1.631.976 2.451.148.381.29.764.428 1.149.084.245.172.49.261.734l.021.019c.119.1.219.206.305.316.363.182.652.513.787.999.295 1.059-.315 1.923-.859 2.764-2.21 3.415-4.729 6.67-7.529 9.622a63.967 63.967 0 01-4.377 4.196l-.266.231c-1.369 1.176-2.854 2.291-4.682 2.566-2.138.322-3.879-.742-5.516-1.968l-.163-.123a90.861 90.861 0 01-4.546-3.664c-3.004-2.595-5.862-5.381-8.398-8.437-2.468-2.973-4.906-6.297-6.427-9.874-.093-.218.151-.446.342-.264a52.506 52.506 0 012.164 2.209c.019-1.112-.186-2.234-.072-3.353.14-1.36.1-2.862.489-4.172z" fill="#000"/><path fill-rule="evenodd" clip-rule="evenodd" d="M166.805 109.396c-1.323-9.563-4.346-18.847-4.78-28.552l-.775-12.46c-.098-2.595-3.459-3.47-4.743-1.172-2.919-3.244-8.145-2.767-12.131-2.668-23.471.834-45.774 16.742-53.831 38.923-.194.529-.135 1.092.084 1.595-3.756 12.555 9.525 20.638 18.583 26.236 3.674 3.893 7.993 7.127 12.87 9.342a45.074 45.074 0 0018.054 4.262c1.36.031 2.178-1.072 2.276-2.213 1.978-.462 5.361.071 6.407-1.96 11.926-5.193 19.696-18.354 17.986-31.333z" fill="#D08B5B"/><path fill-rule="evenodd" clip-rule="evenodd" d="M161.224 75.485c-.034-.31.413-.32.505-.069.756 2.064 1.539 4.115 2.138 6.231.577 2.04.993 4.126 1.414 6.203a181.01 181.01 0 011.795 10.403c1.062-.83 2.45-.906 3.757-.26.614.303.849 1.106.702 1.728-.118.499-.263.996-.436 1.482.37.329.685.734.914 1.2.601 1.225.407 2.512-.132 3.682.041.069.081.139.12.214.781 1.521.363 2.884-.208 4.368-.427 1.111-.189 2.362-1.111 3.201a8.515 8.515 0 01-1.502 2.86 1.88 1.88 0 01-.68.7 31.716 31.716 0 01-.566 4.864c-1.253 6.251-5.231 11.821-10.155 15.75-4.818 3.844-10.478 6.141-16.584 6.884-2.965.361-5.934.247-8.875-.268l-.366-.065c-2.714-.494-5.998-1.311-7.874-3.363-.987-1.079-.41-3.454 1.335-3.23.924.119 1.729.267 2.599.609.678.267 1.358.524 2.055.742 1.335.416 2.715.741 4.1.921 2.887.374 5.887.275 8.741-.29 5.189-1.026 10.231-3.393 14.169-6.957 4.577-4.144 7.26-9.506 7.655-15.69.44-6.888-.353-13.941-1.012-20.793a209.855 209.855 0 00-1.301-10.664c-.512-3.462-.818-6.918-1.197-10.393zm-40.511-22.242l.222-.034c8.813-1.344 18.085-1.249 26.368 2.397 1.587.7 3.141 1.542 4.604 2.521 1.048-.11 2.102-.199 3.137-.213 1.303-.017 2.574.661 2.735 1.982 1.22.152 2.344.602 3.063 1.503.28.35.468.756.563 1.18.75.177 1.486.45 2.184.809.847.437 1.336 1.654 1.037 2.555a6.51 6.51 0 01-.236.598l-.068.146.041.055c.676 1.09.206 2.521-.831 3.172-.778.488-1.647.877-2.541 1.065.074.36.142.721.197 1.087.021.148-.169.253-.253.107 0 0 .32 1 .803 2.101.19.433-.418.818-.649.38-.616-1.166-.998-2.362-1.556-3.565a4.339 4.339 0 01-1.527-.378 1.695 1.695 0 01-.748-.695c-.011.012-.017.027-.028.042-1.663 2.145-4.914 2.897-7.427 3.576-2.698.73-5.46 1.18-8.232 1.511-4.841.577-9.719.685-14.583.909l-.965.046c-1.976 1.738-4.52 2.817-7.13 3.146a12.943 12.943 0 01-4.37-.215 4.426 4.426 0 01-1.955 1.165c-.133 2.769-1.673 5.39-4.001 6.918l.041.164c.579 2.365.571 4.949-1.502 6.592a5.038 5.038 0 01-.911.57l.071.164c1.071 2.51 1.413 5.282-.6 7.364-.816.844-2.25.644-2.862-.324l-.03-.049c-.034-.058-.071-.113-.106-.17a.513.513 0 01-.262.259c-.765.33-1.071.087-1.769-.253a10.868 10.868 0 00-2.021-.738 11.636 11.636 0 00-1.702-.315c-3.596 1.378-5.92 5.605-5.367 9.572.3 2.16 1.482 4.299 3.544 5.195.902.393 1.962.558 2.939.425 1.321-.18 2.338-1.014 3.706-.537.539.188.877.613.906 1.194.049.913-.274 1.598-.818 2.105.96.803 1.733 1.919 2.566 2.809 1.042 1.114 2.098 2.228 3.223 3.255a28.64 28.64 0 003.391 2.682l.125.083c1.501.98 3.391 1.849 3.463 3.897.023.617-.35 1.183-.856 1.498-1.891 1.175-3.949-.368-5.431-1.498a33.685 33.685 0 01-1.735-1.414 2.475 2.475 0 01-1.204-.22 8.567 8.567 0 01-.799-.406c-.849.214-1.651.026-2.31-.42-.951.234-1.959.262-2.815.074a4.72 4.72 0 01-2.055-1.04c-1.202.384-2.537.312-3.722-.417-.71-.437-1.264-1.061-1.566-1.79a1.61 1.61 0 01-.259-.831v-.118c-1.033.023-2.068-.332-2.867-1.151a3.984 3.984 0 01-1.132-2.645 5.187 5.187 0 01-2.714-1.838c-1.197-1.552-1.357-3.469-.742-5.181a3.216 3.216 0 01-.107-.276c-.955-1.351-1.586-2.98-1.535-4.614.006-.254.04-.503.09-.75-.94-.501-1.631-1.381-1.705-2.499a3.317 3.317 0 01.824-2.384 4.179 4.179 0 01-.314-2.098 4.09 4.09 0 01.726-1.913 2.946 2.946 0 01.033-.592c-.038-.197-.07-.4-.086-.606-.18-2.266 1.38-4.249 3.28-5.295.5-.275 1.04-.499 1.58-.689.391-.14.981-.186 1.327-.441-.014-.011.129-.197.154-.296.028-.123.057-.243.072-.368.057-.524.015-1.063.004-1.59-.046-2.388.028-4.787.278-7.162.466-4.405 1.615-8.714 3.854-12.563 1.879-3.225 4.45-5.95 7.4-8.209 5.875-4.498 13.206-6.944 20.453-8.073zM93.488 108.02c-.764-1.843 2.836-1.861 3.788-1.774l.028.003c2.142.214 5.492 1.247 6.369 3.414.362.897-.712 1.87-1.571 1.575-.842-.289-1.313-.909-1.989-1.452a8.644 8.644 0 00-.55-.403c.1.316.258.608.478.826l.052.049c1.037.934-.818 2.401-1.506 1.165a3.285 3.285 0 01-.398-2.127c.033-.221.093-.422.178-.615-.068-.034-.135-.071-.204-.104l-.124-.058c-.825-.375-4.346-1.849-4.318-.531.003.146-.185.146-.233.032z" fill="#000"/><path fill-rule="evenodd" clip-rule="evenodd" d="M143.152 128.274a8.612 8.612 0 01-3.614-2.782c-.322-.429-.405-.882-.338-1.297.076-.466.352-.889.728-1.172.377-.285.849-.425 1.305-.353.397.062.791.279 1.104.729l.065.09a5.686 5.686 0 002.086 1.751c.788.38 1.67.558 2.582.455 1.737-.197 2.935-1.137 4.208-2.413.158-.161.315-.328.474-.496a.743.743 0 01.394-.304.864.864 0 01.97.332.802.802 0 01.135.524c-.117 1.323-.808 2.504-1.79 3.431-1.091 1.029-2.537 1.742-3.898 1.991-1.499.276-3.027.079-4.411-.486zm5.119-20.408c1.595.97 4.026 3.232 2.309 5.637-2.02 2.121-4.928-.311-6.362-1.41-1.329-.852-2.822 1.339-1.589 2.334 10.357 7.671 14.56-6.307 6.448-7.702-.893-.153-1.224.841-.806 1.141zm-18.56-8.923c.176-2.19 3.508-2.686 3.84-.52.296 1.94-.053 3.722-.927 5.469-.834 1.669-2.932.89-3.091-.629-.213-2.037.068-2.959.178-4.32zm25.365-.97c.465-.608 1.136-1.024 1.939-.789 2.511.734 1.771 4.3.889 6.036-.479.943-2.028 1.182-2.728.352-1.141-1.354-1.687-4.057-.237-5.39.04-.069.084-.138.137-.208zm-22.487-8.608l.397-.07c1.227-.212 2.752-.416 3.62.571.461.523.619 1.496 0 1.997-1.088.881-2.292.54-3.596.615-1.075.061-2.108.24-3.143.535-2.272.65-4.123 1.835-6.063 3.137-.254.171-.514-.155-.393-.393 1.12-2.194 3.29-3.997 5.464-5.096 1.161-.586 2.43-1.073 3.714-1.296zm20.198-.983l.304.062c3.303.691 7.596 2.071 9.16 5.317.06.46-.003.558-.055.622l-.017.021c-.042.055-.076.13-.274.193a7.626 7.626 0 01-.168-.041c-.717-.188-1.284-.447-1.833-.716l-.596-.294c-.691-.339-1.388-.665-2.127-.906a25.031 25.031 0 00-4.845-1.07 1.988 1.988 0 01-.971-.37 1.46 1.46 0 01-.544-.828c-.116-.467-.083-.82.168-1.241.188-.317.457-.536.767-.662a1.798 1.798 0 011.031-.087z" fill="#000"/><path fill-rule="evenodd" clip-rule="evenodd" d="M148.85 138.659s-9.378 1.379-13.576-.569c-4.185-1.943-8.256-3.822-12.052-6.395-3.89-2.635-7.19-5.765-9.546-9.772-2.19-3.728-4.012-7.684-5.845-11.609-.108-.229-1.16-2.51-1.532-3.274-.573-1.186-2.246-.814-2.246 1.027 0 1.84-.082 15.779 3.133 21.262 2.901 4.953 7.817 8.413 12.702 11.433 5.404 3.34 12.583 6.95 19.031 7.903 5.835.863 12.494-1.559 16.719-5.552 4.418-4.175 5.669-9.848 7.948-15.28.509-1.214-1.296-1.946-1.825-.752-.997 2.248-12.911 11.578-12.911 11.578z" fill="#000"/><path fill-rule="evenodd" clip-rule="evenodd" d="M166.075 104.71c-.597 1.626-1.507 3.32-2.619 4.689-4.498 3.811-8.87 1.7-11.089-3.465-.844-3.65 1.396-7.582 3.768-10.267 3.427-3.436 9.02-1.633 10.595 2.452.096.529.154 1.057.182 1.583-.033 1.71-.239 3.172-.837 4.796m-43.242-3.069c5.926-7.052 17.013-7.429 16.73 3.425-1.273 13.739-22.71 10.367-16.73-3.425zm45.106-5.883a9.872 9.872 0 00-.69-1.018c-.093-.055-.146-.546-.488-.583-4.569-5.042-12.596-2.181-15.496 2.843a8.186 8.186 0 00-1.28 2.165c-2.858-.524-6.189-.422-8.847.657-2.636-6.884-10.614-7.498-15.872-4.557-3.27 1.61-5.391 4.979-8.571 6.83-7.477.538-15.501-1.138-22.842.738-5.79 1.205-.95 4.138.02 2.18 6.923-2.046 15.123-.317 22.31-.778.747 1.265 2.18 2.3 3.608 2.255 1.543 13.679 21.483 11.411 22.171-.749.78-1.234 1.75-2.415 3.139-3.184.532-.11 1.046-.253 1.515-.474.802-.114 2.039.227 2.777.895 2.529 15.178 17.097 13.411 19.7.114.052-.053.196-.251.308-.569.891-1.179 3.072-1.617 2.724-3.607-.311-1.99-2.823-1.967-4.186-3.158z" fill="#000"/></svg>