<svg fill="none" xmlns="http://www.w3.org/2000/svg" viewBox="0 0 240 324"><path fill-rule="evenodd" clip-rule="evenodd" d="M181.079 176.597c-1.842-7.143-3.535-10.172-6.806-12.655-3.06-2.322-7.526-4.273-14.044-5.698-6.788-1.187-6.98-4.716-8.682-10.387-.496-1.705-2.957-2.159-4.019-.93a5.09 5.09 0 00-.467-.443c.144-.813-1.039-3.144-1-3.922.413-8.118-2.242-12.195-8.868-13.71-1.442-.33-11.23-.524-12.635-.136-6.143 1.699-12.19 7.092-11.265 13.589-1.928 2.521-3.815 4.059-6.79 4.871-4.633.589-2.305 66.234 5.74 105.563 3.453 16.874 85.997-11.847 82.267-20.298.529-1.549-.435-3.252 0-4.851.315-1.158 1.121-1.637 1.527-2.783.571-1.613-.05-3.778-.693-5.424-.263-.82.485-1.703.693-2.54.986-3.949-1.272-3.601-2.901-6.241.024-.008.448-1.892.446-1.883.249-1.345-.375-3.069-.92-4.192-.368-.759-1.157-1.234-1.941-1.147.789-2.68 1.788-4.91 2.861-7.493 1.898-4.551 3.704-9.313 6.43-13.432 1.116-1.687.215-3.239-1.592-3.354a110.421 110.421 0 01-17.341-2.504z" fill="#D08B5B"/><path fill-rule="evenodd" clip-rule="evenodd" d="M171.951 177.149l-13.348 22.595s3.166.316 4.448.932c1.281.616 7.165 8.098 7.165 8.098l.935 4.12-2.215 3.322.864 2.085s.616-1.413 2.151-2.51c1.534-1.097 4.919-2.897 4.919-2.897s-1.125-.602-1.125-1.308c0-.707-.991-3.721 1.125-4.86 2.115-1.139 13.045-3.803 13.045-3.803l11.078-23.374-29.042-2.4z" fill="#EC7495"/><path fill-rule="evenodd" clip-rule="evenodd" d="M112.407 147.329l42.383 7.441 19.483 9.172 3.18 2.451-18.85 33.351-29.106 5.312-7.416 19.267 1.514 21.717 47.35-5.647 20.425-2.428 4.801 19.389-.867 7.976-1.262 4.045-50.634 13.674s-25.784-2.5-30.354-2.5c-4.571 0-38.082 3.329-38.082 3.329l-7.753-.829s-17.155-18.085-19.816-24.522c-2.66-6.436-8.414-45.563-8.414-45.563l.634-6.012 14.82-38.152s1.98-1.797 4.475-4.858c2.495-3.061 53.489-16.613 53.489-16.613z" fill="#9DDADB"/><path fill-rule="evenodd" clip-rule="evenodd" d="M189.116 202.441c-3.83.195-7.665 1.105-11.13 2.756-1.417.676-2.702 1.653-3.078 3.259-.19.82-.144 1.668-.042 2.496.076.628.095 1.429.64 1.854.093.071.192.126.296.166a25.99 25.99 0 00-3.577 1.985c-.989.653-2.005 1.659-2.461 2.794a10.73 10.73 0 00-.114-.363c-.778-2.3-1.976-4.183-3.862-5.449-.215-.781-2.514-4.142-4.649-4.016-2.339.138-4.22.309-6.335 1.385a34.542 34.542 0 00-2.301.027c-.131.004-.124.182 0 .197.617.078 1.234.165 1.851.266 1.466.235 2.928.533 4.358.902 1.716.445 3.49.89 5.094 1.666 3.11 1.507 5.035 5.447 4.639 8.875-.065.562-.283 2.261-1.062 2.086-.659-.148-.921-1.524-1.152-2.034-.617-1.352-1.728-2.236-3.061-2.834-1.565-.704-3.241-1.179-4.863-1.733-.919-.315-1.838-.63-2.759-.943-.943-.323-1.838-.769-2.842-.543-.606.138-.676.86-.336 1.275.518.632 1.287.818 2.033 1.078l2.949 1.027c1.519.528 3.11.974 4.59 1.621l-.046.105c-.12-.033-.262.087-.239.235.222 1.368.531 2.948.188 4.318-.27 1.086-1.223 2.289-2.461 1.97a.659.659 0 00.135-.767c-.49-1.049-6.912-5.187-7.485-3.65-.019.054.04.095.087.086.488-.101 1.305.731 1.696.996.564.38 1.137.752 1.695 1.143.61.427 1.206.875 1.787 1.338.456.364.801.742 1.324.926a1.11 1.11 0 00-.585.684c-.236.81-.693 1.497-1.485 1.854-.83.372-1.766.137-2.641.228-1.191.121-2.231.687-3.099 1.497-1.823 1.703-2.738 4.704-5.288 5.509-1.523.48-3.213.178-4.756-.04-1.721-.243-3.399-.435-5.133-.181-1.661.243-3.231.817-4.748 1.519-1.421.657-2.993 1.402-4.255 2.382-.259-.801-.521-1.594-.72-2.411a28.76 28.76 0 01-.784-5.891c-.057-1.891.049-3.791.211-5.675.081-.94.208-1.876.288-2.817.021-.237.063-.49.095-.744 2.252-1.329 4.618-2.348 7.003-3.396.007-.002.013-.007.019-.008l.22-.098-.008-.013a1.45 1.45 0 00.576-.638c3.438-2.28 6.311-5.393 8.453-9.024.898-1.522 1.762-3.101 2.937-4.434 1.251-1.423 2.736-2.268 4.574-2.708 2.148-.515 4.363-.824 6.564-1 1.202-.095 2.546-.243 3.856-.236.912.006 1.806.084 2.626.31 1.214.334 1.924 1.258 2.687 2.192a65.357 65.357 0 012.134 2.729c.644.885 1.253 1.8 1.781 2.76.317.575.61 1.167.858 1.777.086.216.2.461.253.685.053.226-.044.465.209.465-1.046.015-1.741 2.623-.701 2.562 1.461-.085 2.196-1.838 1.91-3.393-.511-2.774-3.27-6.125-3.816-6.835-1.206-1.568-2.451-3.614-4.382-4.343a1.408 1.408 0 00-.084-.03c.562-.532 1.006-1.17 1.43-1.819.438-.668.959-1.433 1.103-2.226.091-.505-.537-.792-.834-.351-.434.645-.643 1.461-.966 2.169-.33.718-.731 1.397-1.048 2.122-.763-.235-1.586-.342-2.425-.378 1.058-1.433 2.866-4.198 3.084-4.553a104.956 104.956 0 002.865-5.037c.984-1.838 1.828-3.753 2.77-5.613.534-1.054 1.073-2.118 1.667-3.141a9.13 9.13 0 01.674-1.02c.048-.064.11-.116.167-.176l.171-.097c.342-.196.462-.653.703-.943.385-.467.837-.522 1.416-.528 1.233-.013 2.472.036 3.703.07a218.39 218.39 0 0114.947.923c2.32.222 4.64.584 6.962.757-3.144 7.471-6.63 14.807-10.577 21.888a.911.911 0 00-.088.215zm-17.442 19.247c-.507.233-1 .522-1.458.852a8.692 8.692 0 00.074-1.598c.378.406.862.639 1.384.746zm21.644-12.852a.105.105 0 00-.086.059c-.702 1.448-.408 3.065.737 4.2.6.592 1.908 1.26 1.865 2.232-.036.786-.891 1.445-1.257 2.094-.34.605-.466 1.268-.194 1.924.349.839 1.323 1.173 1.656 1.997.423 1.046-.264 2.308-.745 3.219-.448.843-1.027 1.686-1.412 2.578-2.575 1.334-8.419 3.756-9.122 3.891a160.282 160.282 0 01-7.555 1.262c-.947.133-1.895.264-2.844.368-.828.088-1.762.209-2.429-.414-1.346-1.26-.592-3.372.26-4.644a.082.082 0 00.01-.07c.803-.188 1.604-.408 2.402-.562a97.99 97.99 0 014.631-.767c3.182-.455 6.385-.755 9.583-1.057.792-.076.801-1.323 0-1.249-4.595.421-9.213.82-13.747 1.706a62.91 62.91 0 00-3.387.75c-.53.131-1.098.336-1.654.343-.034 0-.068 0-.101-.003-1.088-.033-1.247-.965-.649-1.741.074-.095.15-.191.228-.281 1.057-1.26 2.373-2.101 3.729-2.972 1.519-.207 3.034-.668 4.521-1.006 3.672-.837 7.344-1.674 11.018-2.509.72-.165.414-1.272-.306-1.109l-8.367 1.895-4.081.926c-.816.184-1.834.554-2.793.687-.473.066-.932.074-1.346-.023-1.337-.317-1.405-1.989-.828-2.982.646-1.116 1.868-1.814 2.951-2.446 1.878-1.097 3.877-1.885 5.829-2.794l1.04-.228c2.015-.444 4.318-.661 6.215-1.475.568-.241.258-1.137-.304-1.125-1.473.032-3.013.556-4.452.867-1.557.338-3.116.674-4.673 1.01-.156.034-1.081.33-1.221.264-.089-.042-.12-.35-.15-.553-.095-.668-.165-1.37-.061-2.04.228-1.503 1.481-2.208 2.748-2.785 2.823-1.283 5.918-2.086 8.998-2.408.71-.074 1.42-.12 2.134-.143.839-.026 1.53-.174 1.954.653.668 1.302 1.036 2.976 1.255 4.461zm-3.92 47.204c-.615-2.128-.448-4.4-.869-6.57a35.516 35.516 0 00-.838-3.324c-.262-.883-.698-1.822-.747-2.743-.003-.062.069-.097.119-.069.868.497 1.534 1.572 2.029 2.415a16.166 16.166 0 011.409 3.177c.728 2.213 1.325 4.883.387 7.114-.279.664-1.26.797-1.49 0zm-24.002 16.109c-.916-.64-1.584-1.535-2.361-2.324-.765-.776.43-1.972 1.195-1.195.663.673 1.239 1.514 2.019 2.059.376.262.55.735.304 1.156-.218.372-.782.565-1.157.304zm-5.111-24.59c1.673-.724 3.319-1.512 5.07-2.033 1.046-.312 1.489 1.32.449 1.63-1.613.48-3.125 1.196-4.666 1.862-.989.428-1.848-1.029-.853-1.459zm-17.668-.507c-.409-1.01 1.227-1.445 1.63-.449.464 1.146.996 2.262 1.46 3.408.409 1.01-1.226 1.446-1.63.45-.464-1.146-.996-2.263-1.46-3.409zm-17.439 20.167c-.272.364-.727.561-1.156.304-.36-.216-.579-.789-.303-1.157.805-1.074 1.621-2.135 2.566-3.093.765-.776 1.96.42 1.195 1.196-.843.855-1.582 1.791-2.302 2.75zm-2.493-113.155c.776.53 1.455 1.174 2.118 1.837.771.77-.425 1.965-1.195 1.195-.559-.558-1.122-1.125-1.776-1.572-.378-.258-.548-.739-.303-1.157.219-.374.779-.56 1.156-.303zm25.371 27.209c-.438.878-.833 1.739-.858 2.738-.027 1.088-1.717 1.088-1.69 0 .032-1.307.514-2.44 1.089-3.592.486-.975 1.944-.117 1.459.854zm9.309-21.853c.908-.605 1.753.86.853 1.46l-2.191 1.461c-.908.606-1.753-.859-.853-1.46l2.191-1.461zm-40.377 38.207c-.155 1.074-1.783.615-1.63-.449.238-1.645.528-3.268.974-4.87.292-1.049 1.922-.6 1.63.449-.446 1.602-.736 3.225-.974 4.87zm-5.925 19.368c-1.088-.023-1.088-1.714 0-1.691.984.021 1.952.28 2.902.517 1.056.264.606 1.895-.45 1.631-.802-.201-1.62-.439-2.452-.457zm-2.188 39.015c-.373.182-.757.346-1.135.519l-2.268 1.039c-1.575.724-3.149 1.449-4.721 2.177-3.148 1.458-6.32 2.864-9.476 4.306a1303.785 1303.785 0 00-9.633 4.458c-1.51.706-3.031 1.385-4.55 2.072-1.298.587-2.903 1.614-4.329 1.71-.073.005-.098-.087-.056-.135.539-.613 1.398-.969 2.106-1.367.722-.407 1.459-.79 2.192-1.178 1.528-.81 3.059-1.614 4.602-2.395a2470.7 2470.7 0 019.272-4.664c3.155-1.58 6.305-3.171 9.488-4.695 1.498-.718 2.998-1.433 4.498-2.146.813-.387 1.627-.772 2.44-1.157.351-.167.699-.346 1.058-.495.478-.198.84-.157 1.333-.279.802-.198 1.15.823.534 1.268-.508.366-.775.679-1.355.962zm-11.283 17.338c-.173-.422.19-.935.59-1.04.48-.127.865.165 1.04.59a9.549 9.549 0 001.973 3.036c.759.781-.435 1.977-1.195 1.195-1.065-1.095-1.83-2.375-2.408-3.781zm-8.3-27.14c-.771-.771.424-1.966 1.194-1.196l2.19 2.191c.771.771-.425 1.967-1.195 1.196l-2.19-2.191zm-22.474-3.573c-1.574.462-3.411.887-4.485 2.231-.052.066-.14-.018-.109-.084 1.375-2.851 5.317-3.85 8.046-4.849 1.93-.707 3.91-1.293 5.908-1.816-.2-2.279.351-4.722.542-6.99.205-2.422.37-4.85.456-7.279.087-2.478.109-4.973.027-7.452-.081-2.47-.401-4.909-.542-7.37-.013-.238.318-.25.39-.053.829 2.284 1.183 4.814 1.453 7.223.278 2.481.37 4.954.335 7.45-.037 2.566-.186 5.125-.39 7.683-.098 1.212-.21 2.423-.317 3.634-.08.925-.118 1.842-.307 2.737 1.205-.296 2.412-.576 3.616-.848 3.838-.866 7.692-1.67 11.514-2.607 1.876-.46 3.725-1.01 5.593-1.499 1.758-.461 3.614-1.019 5.42-1.225.644-.073.726.808.3 1.108-1.468 1.03-3.417 1.748-5.112 2.325-1.701.579-3.47.996-5.213 1.424-3.636.895-7.307 1.627-10.972 2.388-3.66.762-7.327 1.517-10.945 2.456-1.743.452-3.48.906-5.207 1.413zm-8.63-45.233c-.94.552-1.79-.91-.852-1.46 1.227-.721 2.534-1.262 3.852-1.79 1.012-.405 1.447 1.231.45 1.631-1.185.474-2.347.971-3.45 1.619zm-3.406 62.816c-.944.547-1.794-.914-.853-1.46 1.321-.766 2.768-1.277 4.137-1.948.974-.477 1.83.982.853 1.46-1.369.671-2.816 1.182-4.137 1.948zm-1.533-35.657c.913.867 2.13 1.275 3.278 1.73 1.001.397.562 2.031-.45 1.631-1.43-.568-2.886-1.086-4.023-2.166-.79-.751.407-1.945 1.195-1.195zm10.093-48.426c1.003.393.564 2.028-.45 1.63-1.123-.44-2.283-.776-3.407-1.217-1.002-.393-.563-2.028.45-1.63 1.123.44 2.283.776 3.407 1.217zM81.146 156.9c1.066-.179 1.52 1.45.45 1.631-1.328.224-2.636.486-3.895.974-1.017.393-1.453-1.242-.45-1.631 1.26-.487 2.567-.749 3.895-.974zm5.883 46.832c-.977-.481-.12-1.938.853-1.46 1.025.504 2.087.894 3.205 1.132 1.065.227.611 1.857-.45 1.631-1.258-.269-2.456-.736-3.608-1.303zm5.556-26.38c1.052-.288 1.497 1.343.449 1.631-1.843.505-3.741.768-5.598 1.217-1.058.256-1.506-1.374-.45-1.63 1.858-.45 3.755-.712 5.599-1.218zm23.57-8.278c1.07.198.614 1.827-.449 1.631-1.132-.21-2.279-.213-3.427-.214-1.089 0-1.087-1.691 0-1.691 1.304.001 2.591.036 3.876.274zm76.872 8.833a219.2 219.2 0 00-8.297-.634c-.129-.006-.255-.014-.385-.021-.014-.029-.033-.057-.052-.087-.904-1.327-1.57-2.654-2.147-4.155-.551-1.428-1.086-2.901-1.935-4.191-.969-1.468-2.276-2.618-3.71-3.614a17.119 17.119 0 00-2.414 1.995c-.777.764-1.972-.431-1.195-1.195a18.56 18.56 0 012.096-1.779c-.854-.52-1.726-1.008-2.577-1.494a127.934 127.934 0 00-9.784-5.04c-1.548-.717-3.116-1.353-4.694-1.998-.85-.346-1.688-.792-2.537-1.194.061-.6-.119-1.272-.579-1.667-.34-.29-.604-.398-1.01-.602-.091-.032-.146-.051-.171-.062.019.004.074.021.164.051.216.099.233.07.051-.087-.01-.342-.684-1.065-.838-1.418-.537-1.211-.704-2.492-1.496-3.595-1.092-1.52-2.926-2.094-4.636-1.579-.177-1.828-.223-3.736-.912-5.368-.019-.044-.08-.064-.108-.015-.718 1.224-.779 2.587-.834 3.999a23.515 23.515 0 00.171 3.996 6.29 6.29 0 01-.338.243 7.389 7.389 0 01-1.75.842c-1.174.388-2.406.558-3.638.617-3.179.152-6.456-.169-9.583-.715-3.162-.551-8.011-1.38-10.825-2.963-1.857-1.044-3.57-2.318-5.307-3.553.629-2.029.79-4.21.156-5.924-.076-.205-.397-.243-.458 0-.397 1.636-.514 3.28-1.042 4.897l-.025.072-.494-.332c-.381-.251-.898-.063-1.127.296-3.648 5.751-9.426 6.081-15.494 7.108-6.64 1.124-13.314 2.337-19.698 4.538-6.106 2.105-11.941 5.169-16.564 9.747a38.612 38.612 0 00-2.949 3.294c.894.113 1.78.288 2.655.563 1.036.326.59 1.957-.45 1.63-1.123-.353-2.26-.528-3.409-.615-3.14 4.299-5.59 9.173-7.707 13.97-4.063 9.198-6.707 18.994-7.923 28.967a33.624 33.624 0 012.045-1.137c.968-.493 1.822.966.853 1.46a35.38 35.38 0 00-3.136 1.806 105.592 105.592 0 00-.51 13.146c.247 10.458 1.659 21.222 4.85 31.199 1.566 4.897 3.641 9.754 6.732 13.893 1.398 1.874 2.987 3.565 4.859 4.975a19.455 19.455 0 002.877 1.811c1.304.668 3.003.888 4.127 1.832.37.311.654.721.87 1.184-.125.879-.14 1.76.101 2.64a.94.94 0 00.54.606c.003.076.003.15.003.222 0 .034.051.042.057.009l.032-.199c.082.027.169.04.258.04 3.209.012 6.422-.066 9.635-.175-.248-.761-.517-1.516-.776-2.278-.35-1.034 1.282-1.474 1.63-.449.302.89.619 1.772.9 2.666 3.443-.128 6.885-.282 10.32-.396 7.308-.243 14.614-.323 21.924-.477 11.351-.241 22.785-.734 34.155-.252.393-.835.833-1.65 1.25-2.474.492-.971 1.95-.115 1.46.854-.29.572-.591 1.137-.876 1.708 2.302.12 4.603.278 6.898.493 3.917.368 7.796 1.021 11.709 1.427 3.978.414 7.869.34 11.816-.317.71-.118 1.128-.548 1.301-1.08a.027.027 0 00.015-.013c.203-.237.393-.433.589-.604.235-.152.489-.281.786-.396a8.169 8.169 0 011.722-.426c.647-.097 1.302-.106 1.948-.186.545-.07 1.078-.174 1.61-.3a16.367 16.367 0 002.77-.922c.788-.344 1.499-.839 2.172-1.378 1.39-1.017 2.594-2.314 3.646-3.663a27.318 27.318 0 001.713-2.458c.913-1.475 1.691-3.007 2.476-4.552.286-.458.546-.927.784-1.406-1.536-.452-3.087-.821-4.715-.847-1.088-.018-1.088-1.709 0-1.691 1.867.03 3.634.466 5.389.986.085-.227.167-.456.243-.688.209-.484.383-.981.526-1.484l.254-.684c.19-.791.38-1.583.572-2.376.383-1.268.685-2.555.907-3.859.186-.858.329-1.723.426-2.598.296-2.12.537-4.235.554-6.378a43.875 43.875 0 00-.254-3.953 30.045 30.045 0 00-.304-2.661c-.182-1.31-.361-2.607-.663-3.901l-.678-2.625a50.572 50.572 0 00-1.997-5.36c-.042-.11-.256-.351-.384-.353-.098-.002-.233.087-.189.205l.013.034c-.044-.099-.086-.201-.131-.3-.038-.093-.186-.279-.3-.277-.006 0-.013 0-.021.002a.485.485 0 00.085-.08c.758-.898 1.25-2.08 1.793-3.12.45-.858.875-1.762.997-2.732.108-.852-.038-1.691-.572-2.38-.609-.784-1.754-1.152-1.118-2.285.723-1.289 1.786-2.407.727-3.872-.539-.746-1.392-1.156-2.026-1.805-.729-.75-1.076-1.754-1.056-2.779.044.025.103.013.124-.051.613-1.851.169-3.884-.458-5.687-.342-.979-1.067-1.247-1.91-1.296 3.651-7.133 7.067-14.38 10.111-21.794.102-.243.201-.486.3-.729.148-.364-.164-.848-.526-.928-2.632-.577-5.374-.761-8.055-1.015z" fill="#000"/><path fill-rule="evenodd" clip-rule="evenodd" d="M119.785 55.516c31.954-1.576 34.186 7.735 38.574 13.67 2.177 2.947 7.799 7.31 8.732 17.383.647 6.993-3.474 15.054-3.474 21.303 0 3.189 3.896 10.037 2.082 14.686-4.036 10.348-12.583 21.831-23.474 21.831s-30.996-6.017-43.03-23.291c-3.942-5.658-11.365-64.007 20.59-65.582z" fill="#D08B5B"/><path fill-rule="evenodd" clip-rule="evenodd" d="M166.295 108.496c-.697-.772-1.239-1.406-1.421-2.467a10.079 10.079 0 01-.124-1.353c2.802-3.926 5.526-13.202 5.526-18.275-.001-7.158-2.633-14.044-6.955-19.74-8.425-11.094-22.449-16.782-36.173-16.335-13.143.424-27.122 5.281-35.32 15.663-27.201 34.445-4.372 72.069 12.349 79.896 1.455.682 6.156.445 5.501-1.01-1.881-4.18-3.364-11.88-3.709-13.613.535.362 1.075.715 1.617 1.08.959.645 2.245 1.382 3.451 1.169.057-.011.093-.072.095-.125.055-1.135-.755-2.302-1.468-3.111-.988-1.124-1.929-2.276-2.993-3.331-.453-.45-.913-.896-1.373-1.342-.059-2.676.12-5.364.599-8.054.829-4.665 2.258-9.209 3.9-13.681 1.373-1.015 2.705-2.082 3.938-3.249 2.971-2.808 5.237-6.245 7.181-9.859l.072-.034a374.06 374.06 0 0011.209-5.461c1.912-.97 3.812-1.964 5.711-2.957 1.033-.541 2.098-1.034 3.154-1.543a35.567 35.567 0 01-1.134 4.322c-.384 1.165.788 2.025 1.826 1.833a29.891 29.891 0 0010.016-3.836 31.27 31.27 0 004.313-3.162c1.343 2.005 2.975 3.886 4.621 5.506a50.704 50.704 0 003.479 3.117c-.546 3.769-1.014 7.545-1.606 11.305-.31 1.966-.684 3.931-.918 5.907-.255 2.154.456 3.688 1.87 5.263 1.978 2.2 1.976 5.383 1.219 8.116a12.59 12.59 0 01-.329.995c-.025.068-.099.252-.126.324 0 .002 0 .004-.003.008l-.002.006c-.002 0-.002.002-.004.005v.006l-.002.002c-.088.207-.183.41-.278.613a39.372 39.372 0 01-1.417 2.689c-2.467 4.34-5.583 8.312-9.133 11.816-1.653 1.632-3.371 3.149-5.312 4.392-.409.26-.827.511-1.255.742-.23.124-.466.241-.702.359-.346.171-.202.103-.413.188-.382.15-.772.281-1.17.385a9.372 9.372 0 01-.645.141l-.013.002c-.002 0-.004.003-.006 0-.002.003-.007.003-.011.003-.08.006-.223.019-.251.019-3.027.01-6.029-.398-8.96-1.152-1.587-.41-3.172-.907-4.665-1.589a20.692 20.692 0 01-2.212-1.174c-.318-.196-.619-.433-.955-.604-.501-.258-.993-.23-1.534-.254-.827-.034-1.413.833-1.211 1.594.247.928.635 1.475 1.432 2.027a17.99 17.99 0 001.999 1.181c1.496.772 3.08 1.399 4.682 1.913 3 .959 6.158 1.549 9.299 1.765 2.288.156 4.269-.15 6.352-1.116 2.199-1.021 4.17-2.545 5.994-4.126 4.084-3.538 7.636-7.83 10.649-12.309 2.831-4.21 5.028-8.794 4.305-14.021-.289-2.096-1.141-3.901-2.556-5.469z" fill="#000"/><path fill-rule="evenodd" clip-rule="evenodd" d="M143.152 128.274a8.601 8.601 0 01-3.614-2.781c-.322-.43-.405-.883-.338-1.298.076-.466.352-.889.728-1.172.377-.284.849-.425 1.305-.353.397.062.791.279 1.103.729l.066.09a5.698 5.698 0 002.086 1.752 4.7 4.7 0 002.582.454c1.737-.196 2.935-1.136 4.208-2.413.158-.161.315-.327.474-.496a.74.74 0 01.394-.303.842.842 0 01.543.008.859.859 0 01.427.324.8.8 0 01.135.524c-.117 1.322-.808 2.503-1.79 3.43-1.091 1.03-2.537 1.742-3.898 1.992-1.499.275-3.027.078-4.411-.487zm5.118-20.408c1.596.97 4.027 3.232 2.31 5.637-2.02 2.121-4.928-.31-6.362-1.41-1.329-.852-2.822 1.34-1.589 2.335 10.357 7.671 14.56-6.308 6.448-7.702-.893-.154-1.224.84-.807 1.14zm-18.559-8.923c.176-2.189 3.508-2.686 3.84-.52.296 1.94-.053 3.722-.927 5.469-.834 1.669-2.932.891-3.091-.629-.213-2.037.068-2.959.178-4.32zm25.365-.97c.465-.608 1.136-1.023 1.939-.788 2.511.733 1.771 4.3.889 6.035-.479.943-2.028 1.182-2.728.352-1.141-1.353-1.687-4.056-.237-5.39.04-.068.083-.138.137-.208zm-22.487-8.608l.397-.07c1.227-.211 2.752-.415 3.62.572.461.523.619 1.495 0 1.996-1.088.882-2.292.54-3.596.615-1.075.061-2.108.24-3.143.535-2.272.65-4.123 1.836-6.063 3.138-.254.17-.514-.155-.393-.394 1.12-2.194 3.29-3.997 5.464-5.095 1.161-.587 2.43-1.074 3.714-1.297zm20.198-.983l.304.063c3.303.69 7.596 2.07 9.16 5.317.06.459-.003.557-.055.621l-.017.022c-.042.055-.076.13-.274.193a7.626 7.626 0 01-.168-.042c-.717-.188-1.284-.447-1.833-.716l-.596-.294c-.691-.338-1.388-.665-2.127-.906a25.024 25.024 0 00-4.845-1.07 1.987 1.987 0 01-.971-.37 1.46 1.46 0 01-.544-.828c-.116-.466-.083-.82.168-1.241.188-.316.457-.536.767-.662a1.799 1.799 0 011.031-.087z" fill="#000"/></svg>